<svg xmlns="http://www.w3.org/2000/svg" width="270.693" height="208.111"><path d="M270.692 3.834a3.727 3.727 0 00-4.5-3.752L86.386 40.827a3.7 3.7 0 101.635 7.219L243.405 12.84 76.41 107.652l-63.513-42.59 35.374-8.016a3.7 3.7 0 10-1.635-7.219L2.876 59.74a3.7 3.7 0 00-1.244 6.677l71.775 48.128 11.767 22.459a3.701 3.701 0 106.557-3.435l-10.543-20.122 165.021-93.691-120.948 124.3a3.877 3.877 0 00-.935 1.675l-8.529 33.773-12.448-23.761a3.701 3.701 0 10-6.557 3.435l16.947 32.343a3.75 3.75 0 005.755 1.034l30.011-26.993 62.565 41.942a3.741 3.741 0 005.641-2.132L270.584 4.634a3.891 3.891 0 00.108-.8zm-147.108 175.1l.62-2.453 6.017-23.839 12.948 8.671zm88.292 19.54l-60.629-40.656-17.59-11.786 57.657-59.248 68.524-70.427zM62.597 50.004a3.7 3.7 0 012.792-4.427l2.25-.51a3.7 3.7 0 111.635 7.219l-2.25.509a3.693 3.693 0 01-4.427-2.791z" fill="#393838" opacity=".57"/></svg>