<svg xmlns="http://www.w3.org/2000/svg" viewBox="0 0 13 14.77"><defs><linearGradient id="a" x1=".5" y1=".452" x2=".5" y2="1" gradientUnits="objectBoundingBox"><stop offset="0" stop-color="#f7f6f3"/><stop offset="1" stop-color="#fef6d5"/></linearGradient></defs><path data-name="Path 62" d="M.562 10.758L6.5 14.131l5.938-3.373V4.012L6.5.639.562 4.012zM6.5 14.77L0 11.077V3.696l6.5-3.7 6.5 3.7v7.385z" fill="#a1070c"/><path data-name="Path 63" d="M9.579 14.884l6.03-3.421 6.03 3.421v6.842l-6.03 3.421-6.03-3.421v-6.842" transform="translate(-9.109 -10.92)" fill="url(#a)"/><path data-name="Path 64" d="M9.156 4.846A2.238 2.238 0 019 5.659a3.028 3.028 0 01-.419.748 3.113 3.113 0 01-.606.6 2.31 2.31 0 01-.713.371l-.109-.188a1.671 1.671 0 00.4-.291 1.875 1.875 0 00.312-.4 2.024 2.024 0 00.2-.474 1.874 1.874 0 00.07-.509 1.848 1.848 0 00-.083-.56 1.362 1.362 0 00-.245-.46 1.147 1.147 0 00-.4-.309 1.247 1.247 0 00-.544-.113 1.559 1.559 0 00-.687.151 1.993 1.993 0 00-.562.406 2.757 2.757 0 00-.434.587 4.115 4.115 0 00-.307.694 4.79 4.79 0 00-.185.735 4.23 4.23 0 00-.062.7 3.684 3.684 0 00.071.691 4.2 4.2 0 00.2.7 3.643 3.643 0 00.323.651 2.6 2.6 0 00.445.538 2.064 2.064 0 00.562.369 1.644 1.644 0 00.674.137 1.709 1.709 0 00.487-.07 2.354 2.354 0 00.455-.188 2.563 2.563 0 00.414-.28 3.23 3.23 0 00.362-.35l.172.172a4.108 4.108 0 01-.544.6 4.452 4.452 0 01-.679.511 3.65 3.65 0 01-.762.355 2.5 2.5 0 01-.788.132 1.871 1.871 0 01-.715-.137 2.344 2.344 0 01-.617-.371 2.817 2.817 0 01-.5-.549 3.751 3.751 0 01-.375-.67 3.9 3.9 0 01-.234-.732 3.519 3.519 0 01-.081-.737 3.654 3.654 0 01.169-1.074 5.272 5.272 0 01.466-1.071 6.089 6.089 0 01.7-.982 5.457 5.457 0 01.869-.807 4.316 4.316 0 01.973-.546 2.72 2.72 0 011.012-.2 1.761 1.761 0 01.583.094 1.361 1.361 0 01.468.272 1.255 1.255 0 01.312.441 1.5 1.5 0 01.114.6z" fill="#a1070c"/></svg>