<svg xmlns="http://www.w3.org/2000/svg" viewBox="0 0 76.083 13.732"><path data-name="Path 127" d="M4.782 3.371a3.483 3.483 0 012.245.819l.827-.986a4.781 4.781 0 100 7.321l-.827-.986a3.493 3.493 0 11-2.245-6.168zM31.25 2.356h-2.574a.644.644 0 00-.643.643v7.724a.644.644 0 00.643.644h2.575a4.506 4.506 0 100-9.011zm0 7.724h-1.93V3.647h1.931a3.219 3.219 0 010 6.437zM39.241 3v7.724a.644.644 0 00.644.643h5.364v-1.283h-4.72V7.509h3V6.222h-3V3.647h4.72V2.356h-5.364a.642.642 0 00-.643.643zm19.484 0v7.724a.644.644 0 00.644.643h5.364v-1.283h-4.72V7.509h3V6.222h-3V3.647h4.72V2.356h-5.364a.643.643 0 00-.644.643zM52.6 2.356h-2.79a.644.644 0 00-.643.643v8.368h1.287V7.509H52.6a2.575 2.575 0 100-5.149zm0 3.862h-2.146V3.647H52.6a1.287 1.287 0 110 2.574zm22.2-3.862v6.59l-5.3-6.355a.644.644 0 00-1.138.412v8.368h1.287v-6.59l5.3 6.358a.643.643 0 001.137-.412V2.356H74.8zM24.376 4.671c0-.017-.006-.033-.01-.05s-.006-.019-.009-.029l-.015-.043c-.005-.014-.009-.019-.013-.029s-.013-.026-.02-.039l-.018-.025a.592.592 0 00-.074-.093l-.024-.023-.033-.028-.027-.02-.01-.007L17.847.099a.589.589 0 00-.654 0l-6.276 4.183-.01.007-.027.02a.461.461 0 00-.057.051.533.533 0 00-.075.094l-.017.027a.72.72 0 00-.02.039l-.013.029-.015.043-.009.028c0 .016-.007.033-.01.05s0 .017 0 .025a.593.593 0 00-.005.077v4.184a.531.531 0 00.006.077c0 .009 0 .017.006.026a.353.353 0 00.011.05c0 .009.006.019.009.029s.009.03.015.043l.013.028a.477.477 0 00.063.1l.02.026a.314.314 0 00.029.032.148.148 0 00.024.022l.033.028.026.02c.008.007.006.006.009.007l6.274 4.186a.58.58 0 00.327.1.593.593 0 00.327-.1l6.276-4.184.01-.007.027-.02.034-.028.024-.023a.53.53 0 00.049-.058q.022-.03.042-.063a.36.36 0 00.02-.039l.013-.029.015-.043.009-.029c0-.016.007-.033.01-.05s0-.017 0-.025a.579.579 0 00.005-.077V4.773a.628.628 0 00-.005-.077c0-.009 0-.017-.006-.026zm-6.856 3.59l-2.087-1.4 2.087-1.4 2.087 1.4zm-.59-3.817l-2.558 1.712-2.065-1.382 4.623-3.082v2.752zm-3.62 2.421l-1.476.991V5.878l1.476.987zm1.061.711l2.559 1.711v2.752l-4.624-3.083 2.065-1.381zm3.739 1.71l2.558-1.711 2.065 1.381-4.623 3.083zm3.62-2.421l1.476-.987v1.978l-1.476-.988zm-1.062-.709L18.11 4.445V1.692l4.623 3.082-2.065 1.382z" fill="#565656"/></svg>