<svg xmlns="http://www.w3.org/2000/svg" viewBox="0 0 25 25"><path d="M24.981 8.505c-.006-.03-.011-.061-.019-.09s-.011-.035-.017-.052-.017-.052-.028-.078l-.024-.052a.834.834 0 00-.037-.071l-.031-.05a1.078 1.078 0 00-.135-.17l-.038-.043q-.029-.027-.061-.051l-.049-.037-.018-.014L13.096.181a1.073 1.073 0 00-1.191 0L.479 7.798l-.018.014-.049.037a.841.841 0 00-.1.093.971.971 0 00-.136.171l-.031.05a.926.926 0 00-.036.071l-.024.052c-.007.017-.02.052-.028.078l-.016.051c-.004.016-.014.06-.019.09 0 .015-.007.031-.009.046a1.08 1.08 0 00-.009.14v7.619a.968.968 0 00.01.14c0 .017.007.03.01.047a.641.641 0 00.02.091c0 .017.01.034.017.052s.017.054.027.079.017.034.023.05a.869.869 0 00.115.185c.012.017.024.03.037.047a.572.572 0 00.054.058.27.27 0 00.044.04l.061.051c.016.014.034.024.047.037s.01.01.017.013l11.423 7.621a1.055 1.055 0 00.6.181 1.08 1.08 0 00.6-.181l11.413-7.619.018-.013.049-.037c.021-.016.042-.034.061-.051l.043-.042a.965.965 0 00.09-.1q.041-.056.076-.115a.61.61 0 00.037-.072l.024-.052c.008-.018.019-.052.028-.079l.017-.052c.005-.018.013-.06.019-.09s.007-.031.008-.046a1.055 1.055 0 00.01-.141v-7.62a1.14 1.14 0 00-.009-.14c0-.017-.008-.03-.011-.047zM12.5 15.042l-3.8-2.541 3.8-2.542 3.8 2.542zm-1.074-6.949l-4.657 3.115-3.76-2.515 8.417-5.611v5.011zM4.836 12.5l-2.684 1.797v-3.595l2.687 1.8zm1.932 1.294l4.657 3.115v5.01l-8.416-5.612 3.76-2.515zm6.806 3.114l4.657-3.115 3.76 2.515-8.417 5.611zm6.59-4.407l2.687-1.8v3.595l-2.687-1.8zm-1.932-1.293l-4.658-3.115V3.082l8.417 5.611-3.76 2.515z" fill="#fff"/></svg>