<svg xmlns="http://www.w3.org/2000/svg" xmlns:xlink="http://www.w3.org/1999/xlink" viewBox="0 0 25.769 24.41"><defs><linearGradient id="a" x1="-.826" y1="-.928" x2="1.038" y2="1.06" gradientUnits="objectBoundingBox"><stop offset="0" stop-color="#f9a03c"/><stop offset="1" stop-color="#f7974e"/></linearGradient><linearGradient id="b" x1="-2.589" y1="-2.49" x2=".976" y2=".988" xlink:href="#a"/><linearGradient id="c" x1="-2.232" y1="-2.62" x2=".94" y2="1.017" xlink:href="#a"/><linearGradient id="d" x1=".113" y1="-.018" x2=".825" y2=".921" gradientUnits="objectBoundingBox"><stop offset="0" stop-color="#f26d58"/><stop offset="1" stop-color="#f9a03c"/></linearGradient><linearGradient id="e" x1=".158" y1=".039" x2="1.201" y2=".724" gradientUnits="objectBoundingBox"><stop offset="0" stop-color="#b84e51"/><stop offset="1" stop-color="#f68e48"/></linearGradient><linearGradient id="f" x1=".47" y1=".235" x2=".519" y2="1.474" xlink:href="#a"/></defs><path data-name="Path 128" d="M181.687 102.691a7.84 7.84 0 00.027-.344c.008-.137-8.225-7.948-8.225-7.948h-.2s8.345 8.8 8.4 8.293z" transform="translate(-155.958 -84.96)" fill="url(#a)"/><path data-name="Path 129" d="M82.758 148.973l-.033.072-.036.075c-.262.547 3.674 4.4 3.991 3.928l.043-.063.048-.073c.253-.384-3.9-4.189-4.013-3.939z" transform="translate(-74.374 -134.004)" fill="url(#b)"/><path data-name="Path 130" d="M136.525 202.083a1.1 1.1 0 01-.163.229c-.012.025 3.843 3.848 3.843 3.848h.347s-3.618-3.915-4.027-4.077z" transform="translate(-122.669 -181.791)" fill="url(#c)"/><path data-name="Path 131" d="M25.761 17.275a7.44 7.44 0 01-7.423 7.093H17.8l-3.979-3.92a14.26 14.26 0 00.9-1.438h3.615a2.074 2.074 0 000-4.147H16.2a14.29 14.29 0 00.252-2.659 14.231 14.231 0 00-.26-2.7h1.328l8.218 8.1c.01-.109.018-.217.023-.327zM2.162 0H0v5.358h2.162A6.854 6.854 0 019.009 12.2a6.807 6.807 0 01-.636 2.877l3.943 3.886a12.132 12.132 0 002.052-6.763A12.219 12.219 0 002.162 0z" fill="url(#d)"/><path data-name="Path 132" d="M104.062 0h-8.875a14.586 14.586 0 015.186 5.433h3.689a2.1 2.1 0 110 4.205h-.829l8.332 8.21a7.53 7.53 0 00.032-.674 7.5 7.5 0 00-1.748-4.819A7.53 7.53 0 00104.062 0z" transform="translate(-85.828)" fill="url(#e)"/><path data-name="Path 133" d="M18.048 159.2H9.782a14.615 14.615 0 004.231-3.975l4.034 3.975zm-5.56-5.477l-4-3.94a6.952 6.952 0 01-6.3 4.025H0v5.433h2.192a12.374 12.374 0 0010.296-5.52z" transform="translate(0 -134.829)" fill="url(#f)"/></svg>