<svg xmlns="http://www.w3.org/2000/svg" viewBox="0 0 65 73"><g data-name="Union 7" fill="#fff"><path d="M32 58c-6.172 0-11.96-.803-16.299-2.26-3.883-1.305-6.201-3.037-6.201-4.635V10h45v41.105c0 1.598-2.318 3.33-6.201 4.635-4.34 1.457-10.127 2.26-16.3 2.26z"/><path d="M32 57c6.066 0 11.741-.784 15.98-2.208 1.91-.642 3.442-1.396 4.43-2.18.692-.55 1.09-1.1 1.09-1.507V11h-43v40.105c0 .407.398.957 1.09 1.507.988.784 2.52 1.538 4.43 2.18C20.258 56.216 25.934 57 32 57m0 2c-12.98 0-23.5-3.534-23.5-7.895V9h47v42.105C55.5 55.465 44.979 59 32 59z" fill="#5dbeff"/></g><g data-name="Union 8" fill="none"><path d="M8.5 29.69V9h47v20.69C55.5 34.832 44.979 39 32 39S8.5 34.832 8.5 29.69z"/><path d="M32 38c6.155 0 11.925-.943 16.249-2.656 3.973-1.574 6.251-3.635 6.251-5.654V10h-45v19.69c0 2.02 2.278 4.08 6.251 5.654C20.075 37.057 25.846 38 32.001 38m0 1C19.02 39 8.5 34.832 8.5 29.69V9h47v20.69C55.5 34.832 44.98 39 32 39z" fill="#5dbeff"/></g><g data-name="Ellipse 112" transform="translate(8.5)" fill="#fff" stroke="#5dbeff"><ellipse cx="23.5" cy="9.5" rx="23.5" ry="9.5" stroke="none"/><ellipse cx="23.5" cy="9.5" rx="23" ry="9" fill="none"/></g><path data-name="Line 8" fill="none" stroke="#5dbeff" d="M0 72.5h65"/><path data-name="Line 9" fill="none" stroke="#5dbeff" d="M33 62.5v10"/></svg>