<svg xmlns="http://www.w3.org/2000/svg" viewBox="0 0 43 39"><defs><filter id="a" x="0" y="4" width="43" height="35" filterUnits="userSpaceOnUse"><feOffset dy="3"/><feGaussianBlur stdDeviation="3" result="blur"/><feFlood flood-opacity=".161"/><feComposite operator="in" in2="blur"/><feComposite in="SourceGraphic"/></filter></defs><g data-name="Group 120"><g transform="translate(.004 -.001)" filter="url(#a)"><g data-name="Rectangle 169" transform="translate(9 10)" fill="none" stroke="#6e6e6e" stroke-width="2"><rect width="25" height="17" rx="8.5" stroke="none"/><rect x="1" y="1" width="23" height="15" rx="7.5"/></g></g><path data-name="Polygon 3" d="M22.519 22.228a2 2 0 01-3.037 0L11.83 13.3a2 2 0 011.518-3.3h15.304a2 2 0 011.518 3.3z" opacity=".09"/><g data-name="Polygon 4" fill="none"><path d="M22.082 18.3a2 2 0 01-2.163 0l-7.19-4.622A2 2 0 0113.81 10h14.38a2 2 0 011.082 3.682z"/><path d="M21 16.622L28.19 12H13.81L21 16.622m0 2c-.376 0-.752-.105-1.082-.317l-7.19-4.623C11.05 12.603 11.814 10 13.81 10h14.38c1.996 0 2.761 2.603 1.082 3.682l-7.19 4.623c-.33.212-.706.317-1.082.317z" fill="#6e6e6e"/></g></g><g data-name="Ellipse 165" transform="translate(3)" fill="none" stroke="#6e6e6e"><circle cx="18.5" cy="18.5" r="18.5" stroke="none"/><circle cx="18.5" cy="18.5" r="18"/></g></svg>