<svg xmlns="http://www.w3.org/2000/svg" viewBox="0 0 84.317 23.04"><g data-name="Group 118"><path d="M.001 11.52a11.1 11.1 0 013.375-8.145A11.1 11.1 0 0111.521 0a11.1 11.1 0 018.145 3.375 11.1 11.1 0 013.375 8.145 11.1 11.1 0 01-3.375 8.145 11.1 11.1 0 01-8.145 3.375 11.1 11.1 0 01-8.145-3.375A11.1 11.1 0 01.001 11.52zm1.26 0a9.879 9.879 0 003.015 7.245 9.879 9.879 0 007.245 3.015 9.879 9.879 0 007.245-3.015 9.879 9.879 0 003.015-7.245 9.879 9.879 0 00-3.015-7.245 9.879 9.879 0 00-7.245-3.015 9.879 9.879 0 00-7.245 3.015 9.879 9.879 0 00-3.015 7.245zm3.24 2.475a.112.112 0 010-.18.487.487 0 01.45-.135.783.783 0 01.315.09 2.018 2.018 0 01.7.608 4.583 4.583 0 00.608.652 1.674 1.674 0 002.2.135 1.348 1.348 0 01.292-.54 1.362 1.362 0 01.383-.315q.18-.09.63-.27a8.377 8.377 0 01-2.407-.517 4.08 4.08 0 01-1.462-.967 3.775 3.775 0 01-.877-2.115 5.416 5.416 0 01.2-2.385 3.962 3.962 0 01.768-1.216 4.026 4.026 0 01.135-2.565 4.673 4.673 0 012.61.99 9.858 9.858 0 014.68-.045 8.457 8.457 0 01.967-.563 3.956 3.956 0 011.642-.383 4.853 4.853 0 01.248 1.17 3.867 3.867 0 01-.067 1.26 4.147 4.147 0 011.08 2.88 5.111 5.111 0 01-.495 2.386 3.8 3.8 0 01-1.755 1.575 6.255 6.255 0 01-2.25.495 2.98 2.98 0 01.922.652 1.981 1.981 0 01.383 1.058v1.418l.045 1.372a1.692 1.692 0 00.63.608.152.152 0 01.09.2q-.045.135-.36.135a1.5 1.5 0 01-1.215-.54 1.031 1.031 0 01-.135-.54v-2.16a.656.656 0 00-.18-.517.878.878 0 00-.36-.2v2.834a1.775 1.775 0 00.18.99 1.06 1.06 0 01.225.45q.045.045-.068.067a.871.871 0 01-.383-.067 1.114 1.114 0 01-.81-.608 2.325 2.325 0 01-.225-1.012v-2.79h-.584v2.79a2.473 2.473 0 01-.225 1.035 1.268 1.268 0 01-1.17.675q-.135-.045-.135-.09a3.815 3.815 0 00.27-.45 2.088 2.088 0 00.113-.36 2.614 2.614 0 00.068-.63v-2.835a.729.729 0 00-.338.2.712.712 0 00-.158.518V18.4a1.031 1.031 0 01-.135.54 1.422 1.422 0 01-1.215.54q-.315 0-.36-.135a.125.125 0 01.023-.158 1.37 1.37 0 01.2-.158 1.343 1.343 0 00.18-.135.819.819 0 00.27-.36 1.712 1.712 0 00.067-.945 4.541 4.541 0 01-.023-.99 2.6 2.6 0 01-2.382-.399 4.4 4.4 0 01-.72-1.035 4.537 4.537 0 00-1.08-1.17z" fill="#565656"/><path data-name="Path 104" d="M40.803 10.238h-4.529a.212.212 0 00-.212.212v2.214a.212.212 0 00.212.212h1.771v2.751a5.347 5.347 0 01-1.5.135c-1.294 0-3.1-.473-3.1-4.448s1.882-4.5 3.649-4.5a7.167 7.167 0 012.608.4.213.213 0 00.254-.208l.505-2.139a.2.2 0 00-.081-.165c-.17-.121-1.209-.7-3.834-.7-3.023 0-6.125 1.286-6.125 7.47s3.551 7.105 6.543 7.105a7.366 7.366 0 003.98-1.059.182.182 0 00.069-.161v-6.906a.212.212 0 00-.212-.212m23.34-5.5a.211.211 0 00-.21-.213h-2.55a.212.212 0 00-.211.213v4.928h-3.972V4.738a.211.211 0 00-.21-.213h-2.55a.212.212 0 00-.211.213v13.344a.212.212 0 00.211.213h2.55a.212.212 0 00.21-.213v-5.708h3.975l-.007 5.708a.213.213 0 00.211.213h2.556a.212.212 0 00.21-.213V4.738M45.615 6.492a1.644 1.644 0 10-1.644 1.661 1.652 1.652 0 001.644-1.661m-.182 8.778V9.11a.212.212 0 00-.211-.213H42.68a.243.243 0 00-.221.237v8.825c0 .259.162.336.371.336h2.29c.251 0 .313-.123.313-.34v-2.686m28.4-6.352h-2.529a.212.212 0 00-.211.213v6.543a2.859 2.859 0 01-1.555.47c-.912 0-1.154-.414-1.154-1.307V9.13a.212.212 0 00-.21-.213h-2.569a.213.213 0 00-.211.213v6.138c0 2.654 1.479 3.3 3.514 3.3a5.93 5.93 0 003.015-.922 5.353 5.353 0 00.093.543.223.223 0 00.186.116l1.634-.007a.213.213 0 00.211-.213V9.128a.212.212 0 00-.211-.213m5.918 7.219a3.033 3.033 0 01-1.473-.425v-4.226a3.373 3.373 0 011.308-.424c.911-.082 1.789.194 1.789 2.367-.001 2.295-.397 2.747-1.625 2.712zm1-7.518a4.758 4.758 0 00-2.415.641V4.738a.211.211 0 00-.21-.213h-2.561a.212.212 0 00-.211.213v13.344a.212.212 0 00.211.213h1.777a.211.211 0 00.185-.113 4.154 4.154 0 00.108-.615 4.575 4.575 0 003.025.991c2.324 0 3.657-1.179 3.657-5.292s-2.129-4.651-3.567-4.651m-27.989.278h-1.919V6.366c0-.1-.049-.143-.16-.143H48.08c-.1 0-.156.045-.156.142v2.612s-1.306.315-1.395.341a.212.212 0 00-.153.2v1.641a.212.212 0 00.211.213h1.336v3.948c0 2.932 2.057 3.22 3.445 3.22a5.807 5.807 0 001.518-.25.2.2 0 00.12-.191v-1.805a.215.215 0 00-.211-.213c-.111 0-.4.045-.69.045-.94 0-1.258-.437-1.258-1v-3.748h1.913a.212.212 0 00.211-.213V9.109a.211.211 0 00-.211-.212" fill="#565656"/></g></svg>