<svg xmlns="http://www.w3.org/2000/svg" viewBox="0 0 25 25"><path d="M0 12.5a12.043 12.043 0 013.662-8.838A12.043 12.043 0 0112.5 0a12.043 12.043 0 018.838 3.662A12.043 12.043 0 0125 12.5a12.043 12.043 0 01-3.662 8.838A12.043 12.043 0 0112.5 25a12.043 12.043 0 01-8.838-3.662A12.043 12.043 0 010 12.5zm1.367 0a10.719 10.719 0 003.271 7.861 10.719 10.719 0 007.862 3.272 10.719 10.719 0 007.861-3.271 10.719 10.719 0 003.272-7.862 10.719 10.719 0 00-3.271-7.861A10.719 10.719 0 0012.5 1.367a10.719 10.719 0 00-7.861 3.272A10.719 10.719 0 001.367 12.5zm3.516 2.686a.122.122 0 010-.2.529.529 0 01.488-.146.85.85 0 01.342.1 2.19 2.19 0 01.757.659 4.973 4.973 0 00.659.708 1.816 1.816 0 002.393.146 1.462 1.462 0 01.317-.586 1.478 1.478 0 01.415-.342q.2-.1.684-.293a9.09 9.09 0 01-2.612-.562 4.428 4.428 0 01-1.587-1.05 4.1 4.1 0 01-.952-2.295 5.877 5.877 0 01.22-2.588 4.3 4.3 0 01.83-1.318 4.369 4.369 0 01.146-2.783 5.071 5.071 0 012.831 1.077 10.7 10.7 0 015.078-.049 9.177 9.177 0 011.05-.61 4.293 4.293 0 011.782-.415 5.266 5.266 0 01.269 1.27 4.2 4.2 0 01-.073 1.367 4.5 4.5 0 011.172 3.124 5.546 5.546 0 01-.537 2.588 4.126 4.126 0 01-1.9 1.709 6.787 6.787 0 01-2.441.537 3.234 3.234 0 011 .708 2.15 2.15 0 01.415 1.147v1.538l.049 1.489a1.836 1.836 0 00.684.659.165.165 0 01.1.22q-.049.146-.391.146a1.627 1.627 0 01-1.318-.586 1.118 1.118 0 01-.146-.586v-2.342a.712.712 0 00-.2-.562.953.953 0 00-.391-.22v3.076a1.925 1.925 0 00.2 1.074 1.15 1.15 0 01.244.488q.049.049-.073.073a.945.945 0 01-.415-.073 1.209 1.209 0 01-.879-.659 2.523 2.523 0 01-.244-1.1V16.7h-.635v3.027a2.684 2.684 0 01-.244 1.123 1.375 1.375 0 01-1.27.732q-.146-.049-.146-.1A4.14 4.14 0 0010.84 21a2.266 2.266 0 00.122-.391 2.837 2.837 0 00.073-.684v-3.079a.791.791 0 00-.366.22.773.773 0 00-.171.562v2.344a1.118 1.118 0 01-.146.586 1.543 1.543 0 01-1.318.586q-.342 0-.391-.146a.135.135 0 01.024-.171 1.487 1.487 0 01.22-.171 1.457 1.457 0 00.2-.146.889.889 0 00.293-.391 1.858 1.858 0 00.073-1.025 4.927 4.927 0 01-.024-1.074 2.823 2.823 0 01-2.588-.439 4.769 4.769 0 01-.781-1.123 4.923 4.923 0 00-1.172-1.27z"/></svg>