<svg xmlns="http://www.w3.org/2000/svg" xmlns:xlink="http://www.w3.org/1999/xlink" viewBox="0 0 65 65" fill="#fff" fill-rule="evenodd" stroke="#000" stroke-linecap="round" stroke-linejoin="round"><style>.B{fill-rule:evenodd}.C{clip-path:url(#G)}.D{fill:#f1a5ff}</style><use xlink:href="#A" x=".5" y=".5"/><symbol id="A" overflow="visible"><svg height="64" viewBox="0 0 32 32" width="64" stroke="initial" fill="initial" fill-rule="initial"><clipPath id="B"><path clip-rule="evenodd" d="M32.027 52.567c.43.967.618 2.025.545 3.08a8.52 8.52 0 01-2.122.24 14.08 14.08 0 01-5.902-.209c-3.882-.823-5.676-4.966-5.676-4.966s.037-.037.112-.1a.88.88 0 00-.37-.032c-1.884.365-3.805.51-5.723.433-1.9 0-9.465-2.87-11.9-5.945 0 0 3.78-.923 3.78-1.704S.45 41.142.45 41.142s-.654-3.6 3.974-7.193a28.292 28.292 0 018.05-4.742c-2.404-.32-9.2-3.026-11.486-5.913 0 0 3.78-.923 3.78-1.704S.452 19.37.452 19.37s-.654-3.6 3.974-7.193 8.092-5.3 11.984-5.5l5.197-.2s3.388-4.574 5.168-4.574c.9 0 13.927 2.77 15.056 4.575a4.666 4.666 0 002.256 2.105c.577.432.214.087 2.83.67 6.542 1.46 5.65 2.035 10.5 2.923 1.967.36 10.98-4.07 11.832-3.64.396.2.707 4-.84 6.5s1.242 4.562-.01 7.7 1.435 5.446.852 6.505-10.155-3.466-11.832-3.14c-1.5.293-5.763 2.296-14.086 3.83a8.14 8.14 0 01.748.426c.577.432.213.087 2.83.67 6.542 1.46 5.65 2.035 10.5 2.923 1.967.36 10.98-4.07 11.832-3.64.396.2.707 4-.84 6.5s1.242 4.562-.01 7.7 1.435 5.446.852 6.505-10.155-3.466-11.832-3.14-6.8 2.8-17.184 4.345a42.08 42.08 0 01-8.214.347z"/></clipPath><linearGradient id="C" gradientUnits="userSpaceOnUse" x1="34.057" x2="34.057" y1="1.904" y2="21.653"><stop offset="0%" stop-color="#e559ff"/><stop offset="1%" stop-color="#924dff"/></linearGradient><linearGradient id="D" gradientUnits="userSpaceOnUse" x1="17.168" x2="46.06" y1="11.682" y2="30.967"><stop offset="0%" stop-color="#f1a5ff"/><stop offset="1%" stop-color="#ff686c"/></linearGradient><linearGradient id="E" gradientUnits="userSpaceOnUse" x1="35.22" x2="35.22" y1="27.024" y2="43.9"><stop offset="0%" stop-color="#6f3cff"/><stop offset="1%" stop-color="#3633ff"/></linearGradient><clipPath id="F"><path d="M27.245 12.044l3.468.185 1.106.063 2.476.154a81.99 81.99 0 018.987 1.296 60.67 60.67 0 0113.576 4.665l1.946.866a.715.715 0 00.958-.463.86.86 0 00-.413-1.073l-1.95-.867a61.88 61.88 0 00-13.86-4.756 82.571 82.571 0 00-9.155-1.318l-2.5-.155-1.1-.063-3.473-.185-1.58-.08a.824.824 0 00-.687 1.207l.06.137.172.405.528 1.407c.255.74.457 1.495.604 2.263l.1.763a12.64 12.64 0 01-.432 3.45l-.422 1.702-.6 2.107-.2.634-.056.17-.02.057a.86.86 0 00.431 1.064.714.714 0 00.949-.483l.022-.065.06-.18.208-.656.63-2.173.44-1.776c.354-1.316.51-2.676.467-4.038q-.044-.44-.13-.9a18.16 18.16 0 00-.67-2.517l-.308-.86z"/></clipPath><clipPath id="G"><path d="M.45 1.904h69.2V56.18H.45z"/></clipPath><clipPath id="H"><path d="M27.254 21.553q.145-.58.268-1.13c.354-1.334.51-2.712.467-4.09q-.044-.446-.13-.92a18.72 18.72 0 00-.67-2.55l-.308-.87.364.02 3.468.188 1.106.064 2.476.156c3.018.27 6.018.708 8.987 1.313a60.156 60.156 0 0113.575 4.725l1.946.877c.19.078.4.07.584-.02s.32-.253.374-.45a.88.88 0 00-.413-1.087L57.4 16.9a61.338 61.338 0 00-13.86-4.817 82.21 82.21 0 00-9.155-1.335l-2.5-.157-1.1-.064-5.052-.27a.835.835 0 00-.687 1.224l.06.138.172.4.528 1.425a16.77 16.77 0 01.604 2.293l.1.773a12.96 12.96 0 01-.432 3.494l-.374 1.54z"/></clipPath><clipPath id="I"><path d="M.45 1.796h69.2v54.976H.45z"/></clipPath><clipPath id="J"><path d="M21.226 12.316l.07.122.2.363.614 1.27c.32.717.568 1.464.74 2.23a5.61 5.61 0 01.129 1.129 9.72 9.72 0 01-.584 3.093l-.407 1.04-.132.286-.044.1a.78.78 0 00.258 1.009.65.65 0 00.924-.282l.216-.46.456-1.165a11.25 11.25 0 00.671-3.614 7.19 7.19 0 00-.162-1.457 13.192 13.192 0 00-.836-2.538l-.67-1.382-.312-.554a.643.643 0 00-.94-.209.781.781 0 00-.19 1.028z"/></clipPath><clipPath id="K"><use xlink:href="#Q"/></clipPath><linearGradient id="L" x1="28.82" x2="40.705" xlink:href="#D" y1="41.374" y2="55.625"/><clipPath id="M"><path d="M27.245 34.07l3.468.185 1.106.063 2.476.154a81.99 81.99 0 018.987 1.296 60.67 60.67 0 0113.576 4.665l1.946.866a.715.715 0 00.958-.463.86.86 0 00-.413-1.073l-1.948-.867a61.88 61.88 0 00-13.86-4.756 82.571 82.571 0 00-9.155-1.318l-2.5-.155-1.1-.063-3.473-.185-1.58-.08a.824.824 0 00-.687 1.207l.06.137.172.405.528 1.407c.255.74.457 1.495.604 2.263l.1.763a12.64 12.64 0 01-.432 3.45l-.422 1.702-.6 2.107-.2.634-.056.17-.02.057a.86.86 0 00.431 1.064.717.717 0 00.95-.483l.022-.065.06-.18.208-.656.63-2.173.44-1.776c.354-1.316.51-2.676.467-4.038q-.044-.44-.13-.908a18.16 18.16 0 00-.67-2.517l-.308-.86z"/></clipPath><clipPath id="N"><path d="M27.254 43.46q.145-.572.268-1.116c.354-1.316.51-2.676.467-4.038q-.044-.44-.13-.908a18.16 18.16 0 00-.67-2.517l-.308-.86.364.02 3.468.185 1.106.063 2.476.154a81.99 81.99 0 018.987 1.296 60.67 60.67 0 0113.575 4.665l1.946.866a.715.715 0 00.958-.463.86.86 0 00-.413-1.073l-1.948-.867a61.88 61.88 0 00-13.86-4.756 82.571 82.571 0 00-9.155-1.318l-2.5-.155-1.1-.063-3.473-.185-1.58-.08a.824.824 0 00-.687 1.207l.062.137.172.405.528 1.407c.255.74.457 1.495.604 2.263l.1.763a12.64 12.64 0 01-.432 3.45l-.374 1.52z"/></clipPath><clipPath id="O"><use xlink:href="#R"/></clipPath><linearGradient id="P" xlink:href="#D"/><g transform="translate(-.195 14.61) scale(.4627)"><g clip-path="url(#B)" transform="translate(0 -26)"><path d="M-1.402 1.904h70.918v19.87H-1.402z" fill="url(#C)"/><path d="M61.47 31.062l8.1-1.112.183-2.604v-5.772l-.632-2.03H42.683v2.03H.45v5.772l5.704 1.88 21.604 1.836h4.707" fill="url(#P)"/><path d="M.45 43.46v-13.5l10.262-.737 17.046.132v-1.997H52.35v2.65l17.65-.05v11.475H33.354v2.036z" fill="url(#E)" class="B"/><g clip-path="url(#F)"><path d="M23.856 9.536H60.66v17.13H23.856z" fill="#974dff" class="C"/></g><g clip-path="url(#H)" class="D"><g clip-path="url(#I)"><path d="M24.195 9.355H60.66v13.057H24.195z"/></g></g><g clip-path="url(#J)"><path d="M20.294 10.384h4.92v13.57h-4.92z" fill="#974dff" class="C"/></g><g class="D"><use xlink:href="#Q"/><g clip-path="url(#K)"><path d="M.45 1.775h69.2V56.8H.45z"/></g></g><path d="M.4 56.18V43.46h32.905l-.002-2.07h36.3v14.8z" fill="url(#L)"/><g clip-path="url(#M)"><path d="M23.856 31.416H60.66v17.13H23.856z" fill="#373fff" class="C"/></g><g clip-path="url(#N)" class="D"><path d="M24.195 31.416H60.66v12.9H24.195z" class="C"/></g><path d="M21.226 34.343l.07.12.2.363.614 1.27c.32.717.568 1.464.74 2.23a5.61 5.61 0 01.129 1.129 9.72 9.72 0 01-.584 3.093l-.407 1.04-.132.286-.044.1a.78.78 0 00.258 1.009.65.65 0 00.924-.282l.216-.46.456-1.165a11.25 11.25 0 00.671-3.614 7.27 7.27 0 00-.163-1.463 13.192 13.192 0 00-.836-2.538l-.67-1.382-.312-.554a.643.643 0 00-.94-.209.783.783 0 00-.192 1.027z" fill="#373fff"/><g class="D"><use xlink:href="#R"/><g clip-path="url(#O)"><path d="M.45 1.904h69.2V56.18H.45z"/></g></g></g><circle cx="12.226" cy="-9.944" r="3"/><g fill="#fff"><path d="M9.226-10.183v-.037a3.234 3.234 0 113.232 3.329 2.984 2.984 0 01-3.186-2.767 2.36 2.36 0 002.446 2.073c1.042.03 2-.57 2.422-1.524s.228-2.066-.493-2.82-1.826-.994-2.795-.61-1.61 1.313-1.624 2.356z" class="B"/><circle cx="10.519" cy="-9.257" r=".824"/></g><circle cx="12.226" cy="11.987" r="3"/><g fill="#fff"><path d="M9.226 11.748v-.037a3.234 3.234 0 113.232 3.33 2.985 2.985 0 01-3.187-2.767 2.36 2.36 0 002.446 2.073 2.565 2.565 0 001.929-4.342C12.925 9.253 11.82 9 10.85 9.392s-1.612 1.313-1.625 2.355z" class="B"/><circle cx="10.519" cy="12.675" r=".824"/></g></g><defs><path id="Q" d="M23.513 21.553q.077-.208.152-.427c.42-1.177.647-2.414.67-3.664a7.342 7.342 0 00-.162-1.477 13.545 13.545 0 00-.836-2.573L22.67 12l-.312-.562a.64.64 0 00-.94-.212.8.8 0 00-.191 1.041l.07.123.2.368.614 1.287a11.98 11.98 0 01.739 2.262 5.77 5.77 0 01.129 1.145 9.952 9.952 0 01-.584 3.136l-.364.955z"/><path id="R" d="M23.513 43.46q.077-.205.152-.42a11.25 11.25 0 00.671-3.614 7.062 7.062 0 00-.162-1.457 13.192 13.192 0 00-.836-2.538l-.67-1.382-.312-.554a.643.643 0 00-.94-.209.782.782 0 00-.19 1.027l.07.12.2.363.614 1.27c.32.717.568 1.464.74 2.23a5.61 5.61 0 01.129 1.129 9.72 9.72 0 01-.584 3.093l-.364.942z"/></defs></svg></symbol></svg>