<svg xmlns="http://www.w3.org/2000/svg" viewBox="0 0 13 13"><path data-name="Path 49" d="M6.5 0A6.5 6.5 0 110 6.5 6.5 6.5 0 016.5 0z" fill="#cf4547"/><g fill="#fff"><path data-name="Path 46" d="M3.41 6.669a.732.732 0 00-.049.124q-.035.1-.086.262t-.109.352l-.12.4c-.041.135-.081.268-.119.4s-.072.247-.1.352l-.075.264c-.02.071-.032.113-.037.126a.8.8 0 01-.053.14.95.95 0 01-.087.146.531.531 0 01-.11.114.205.205 0 01-.124.045.176.176 0 01-.156-.071.493.493 0 01-.049-.26v-.055a.542.542 0 010-.059 1.409 1.409 0 01.05-.237 18.266 18.266 0 01.253-.845c.051-.153.1-.3.136-.419q-.178.2-.385.392a4.148 4.148 0 01-.425.35 2.505 2.505 0 01-.439.254 1.046 1.046 0 01-.425.1.769.769 0 01-.4-.1.881.881 0 01-.28-.268 1.206 1.206 0 01-.164-.374 1.676 1.676 0 01-.054-.418v-.051a.332.332 0 010-.047 4.719 4.719 0 01.109-.776 6.278 6.278 0 01.233-.791 7.277 7.277 0 01.333-.77 6.727 6.727 0 01.412-.711 5.535 5.535 0 01.474-.616 3.746 3.746 0 01.516-.484 2.465 2.465 0 01.534-.317 1.362 1.362 0 01.534-.114 1.158 1.158 0 01.589.165 1.685 1.685 0 01.532.536.422.422 0 01.072.167.932.932 0 01.015.16.423.423 0 01-.086.28.242.242 0 01-.4-.01 2.1 2.1 0 01-.206-.321.78.78 0 00-.236-.274.5.5 0 00-.28-.085.87.87 0 00-.5.193 2.911 2.911 0 00-.528.51 5.587 5.587 0 00-.5.724 7.528 7.528 0 00-.424.835 5.942 5.942 0 00-.293.843 2.978 2.978 0 00-.109.746 1.729 1.729 0 00.015.226.761.761 0 00.057.211.417.417 0 00.114.155.271.271 0 00.182.061.62.62 0 00.281-.083 2.079 2.079 0 00.326-.217 4.15 4.15 0 00.34-.3q.171-.169.318-.343c.1-.115.186-.226.261-.333a1.91 1.91 0 00.171-.277l.312-.925a.438.438 0 01.149-.213.333.333 0 01.189-.063.3.3 0 01.094.016.23.23 0 01.142.136.329.329 0 01.022.124 1.776 1.776 0 01-.034.354 2.8 2.8 0 01-.086.323c-.035.1-.073.211-.115.317s-.082.208-.122.324zm4.224.772a3.157 3.157 0 01-.343.384 3.476 3.476 0 01-.4.333 2.436 2.436 0 01-.409.234.911.911 0 01-.362.089.344.344 0 01-.261-.106.523.523 0 01-.1-.363 1.963 1.963 0 01.054-.421 2.159 2.159 0 01-.218.311 1.906 1.906 0 01-.3.288 1.481 1.481 0 01-.375.21 1.237 1.237 0 01-.452.081.8.8 0 01-.213-.028.448.448 0 01-.179-.094.473.473 0 01-.124-.179.733.733 0 01-.047-.281s0-.043.013-.12a2.506 2.506 0 01.086-.366q.072-.25.223-.647t.425-.965a.534.534 0 01.162-.215.339.339 0 01.2-.065.372.372 0 01.1.014.324.324 0 01.094.043.236.236 0 01.07.075.2.2 0 01.027.1.268.268 0 01-.01.075.858.858 0 01-.072.175l-.129.248-.156.3a3.41 3.41 0 00-.152.335 3.338 3.338 0 00-.12.352 1.517 1.517 0 00-.057.348.259.259 0 00.033.13.118.118 0 00.111.059.7.7 0 00.415-.142 1.828 1.828 0 00.365-.352 3.354 3.354 0 00.3-.453q.136-.242.226-.443a2.24 2.24 0 00.112-.287 2.834 2.834 0 01.106-.284.863.863 0 01.131-.216.232.232 0 01.184-.087.228.228 0 01.191.09.343.343 0 01.07.216.607.607 0 01-.045.2c-.03.083-.068.177-.114.284s-.1.22-.149.341-.1.244-.149.368a3.674 3.674 0 00-.114.366 1.373 1.373 0 00-.045.333c0 .095.049.142.147.142a.649.649 0 00.258-.071 1.753 1.753 0 00.323-.2 2.987 2.987 0 00.338-.3 2.429 2.429 0 00.3-.374z"/><path data-name="Path 47" d="M7.658 7.276a2.001 2.001 0 00-.072.212.784.784 0 00-.035.216.2.2 0 00.02.1.08.08 0 00.077.036.433.433 0 00.176-.05 1.808 1.808 0 00.227-.131q.123-.081.255-.187a8.668 8.668 0 00.513-.444c.08-.075.15-.145.213-.208a.148.148 0 01.063-.04.208.208 0 01.063-.012.134.134 0 01.11.055.231.231 0 01.043.147.461.461 0 01-.047.187.585.585 0 01-.164.2c-.143.156-.287.3-.432.444a4.429 4.429 0 01-.434.371 2.309 2.309 0 01-.429.256 1.006 1.006 0 01-.414.095.534.534 0 01-.23-.043.385.385 0 01-.147-.119.472.472 0 01-.079-.179.982.982 0 01-.024-.218 1.713 1.713 0 01.049-.4 2.735 2.735 0 01.115-.375q.118-.31.238-.615l.221-.559 1.015-2.559a.428.428 0 01.163-.218.389.389 0 01.206-.063.3.3 0 01.189.067.261.261 0 01.085.218.446.446 0 01-.029.151c-.019.053-.043.11-.072.171q-.084.186-.2.456t-.248.587q-.132.318-.271.661l-.271.668-.248.617q-.116.291-.195.505z"/><path data-name="Path 48" d="M12.362 6.499a.764.764 0 01.087-.052.173.173 0 01.078-.02.12.12 0 01.11.065.323.323 0 01.037.161.536.536 0 01-.045.21.444.444 0 01-.136.179q-.359.318-.64.579a6.911 6.911 0 01-.531.45 2.4 2.4 0 01-.487.292 1.265 1.265 0 01-.509.1.619.619 0 01-.394-.111.369.369 0 01-.139-.305v-.03a.187.187 0 010-.034.72.72 0 01.1-.274 3.345 3.345 0 01.218-.322q.127-.167.271-.337c.1-.114.185-.222.267-.323a3.241 3.241 0 00.2-.28.42.42 0 00.081-.206.092.092 0 00-.033-.075.173.173 0 00-.11-.028.623.623 0 00-.276.07 1.362 1.362 0 00-.282.186 2.457 2.457 0 00-.271.268 3.857 3.857 0 00-.248.313 4.405 4.405 0 00-.373.627l-.057.123-.08.178c-.029.066-.06.134-.092.2s-.062.137-.089.2l-.072.167-.045.1c-.008.017-.03.069-.056.135l-.089.232c-.034.089-.069.181-.105.28s-.072.19-.1.278-.061.164-.085.23-.04.111-.047.135a1.481 1.481 0 01-.079.195.8.8 0 01-.1.161.46.46 0 01-.134.111.342.342 0 01-.169.042.334.334 0 01-.2-.057.259.259 0 01-.079-.22.7.7 0 01.02-.163 1.559 1.559 0 01.05-.165c.02-.054.041-.107.062-.158s.041-.1.059-.149q.18-.4.369-.8t.36-.79q.173-.391.32-.768t.245-.722l.074-.2a3.52 3.52 0 01.107-.258 1.1 1.1 0 01.136-.22.211.211 0 01.162-.093.262.262 0 01.194.062.246.246 0 01.061.18.676.676 0 01-.007.075c0 .034-.01.071-.017.109l-.021.109a.588.588 0 01-.022.075c.083-.09.172-.179.268-.268a2.794 2.794 0 01.3-.24 1.747 1.747 0 01.314-.175.826.826 0 01.322-.067.77.77 0 01.219.032.628.628 0 01.194.093.487.487 0 01.139.155.424.424 0 01.054.216.859.859 0 01-.082.347 2.528 2.528 0 01-.206.371c-.083.124-.172.246-.268.363s-.186.225-.27.322l-.211.246a.376.376 0 00-.089.137.107.107 0 00.03.078.139.139 0 00.1.03.388.388 0 00.168-.063 2.806 2.806 0 00.31-.22q.2-.157.506-.421t.753-.653z"/></g></svg>