<svg xmlns="http://www.w3.org/2000/svg" viewBox="0 0 13 13"><defs><radialGradient id="a" cx="26.214" cy="120.508" r="9.066" gradientTransform="translate(0 -.164)" gradientUnits="userSpaceOnUse"><stop offset="0" stop-color="#423325" stop-opacity=".98"/><stop offset="1" stop-color="#1c0a00"/></radialGradient></defs><path data-name="Path 65" d="M24.8 155.549h11.932v11.929H24.8z" transform="translate(-24.267 -155.013)" fill="url(#a)"/><path data-name="Path 66" d="M.542.554h11.916v11.89H.542zM0 13h13V0H0zm8.515-8.367c0-.044.016-.067.065-.067h.85c.043 0 .065.017.065.067v4.383c0 .044-.011.067-.065.067h-.84c-.054 0-.07-.028-.07-.072V4.633zm-.06-1.261a.553.553 0 111.105 0 .524.524 0 01-.563.567.516.516 0 01-.542-.567zM6.018 6.461c-.152-.617-.509-1.961-.645-2.611h-.011c-.114.65-.4 1.75-.628 2.611zm-1.506.9l-.428 1.667c-.011.044-.027.056-.081.056h-.8c-.054 0-.065-.017-.054-.083l1.538-5.522a1.843 1.843 0 00.054-.461c0-.039.016-.056.043-.056h1.142c.038 0 .054.011.065.056l1.722 5.994c.011.044 0 .072-.043.072h-.9c-.043 0-.07-.011-.081-.05l-.444-1.672H4.512z" fill="#ff7f18"/></svg>