<svg xmlns="http://www.w3.org/2000/svg" viewBox="0 0 13 13"><path data-name="Path 31" d="M0 0h13v13H0z" fill="#f7df1e"/><path data-name="Path 32" d="M.717 10.334l1.279-.751c.247.425.471.784 1.01.784.516 0 .842-.2.842-.958V4.223h1.571v5.206a2.1 2.1 0 01-2.345 2.3 2.444 2.444 0 01-2.356-1.394m5.555-.163l1.279-.719a1.715 1.715 0 001.549.926c.651 0 1.066-.316 1.066-.752 0-.523-.426-.708-1.145-1.013l-.393-.164c-1.133-.468-1.885-1.056-1.885-2.3a2.075 2.075 0 012.3-2.015 2.335 2.335 0 012.233 1.22l-1.223.763a1.071 1.071 0 00-1.01-.653.676.676 0 00-.752.653c0 .457.292.643.965.926l.393.163c1.335.556 2.087 1.122 2.087 2.4 0 1.373-1.111 2.124-2.6 2.124a3.033 3.033 0 01-2.861-1.558"/></svg>