<svg xmlns="http://www.w3.org/2000/svg" viewBox="0 0 25 25"><path d="M19.323 13.309v4.8h-2.785V13.63c0-1.126-.4-1.894-1.411-1.894a1.524 1.524 0 00-1.429 1.019 1.906 1.906 0 00-.092.679v4.679H10.82s.038-7.591 0-8.378h2.785v1.188l-.018.027h.018v-.027a2.766 2.766 0 012.511-1.385c1.833 0 3.207 1.2 3.207 3.771zM7.905 5.696a1.452 1.452 0 10-.037 2.9h.019a1.452 1.452 0 10.018-2.9zM6.494 18.112h2.785V9.738H6.494z" fill="#fff"/><g data-name="Ellipse 153" fill="none" stroke="#fff" stroke-width="2"><circle cx="12.5" cy="12.5" r="12.5" stroke="none"/><circle cx="12.5" cy="12.5" r="11.5"/></g></svg>