<svg xmlns="http://www.w3.org/2000/svg" viewBox="0 0 42.346 41.615"><defs><filter id="a" x="0" y=".463" width="42.346" height="41.152" filterUnits="userSpaceOnUse"><feOffset dy="3"/><feGaussianBlur stdDeviation="3" result="blur"/><feFlood flood-opacity=".161"/><feComposite operator="in" in2="blur"/><feComposite in="SourceGraphic"/></filter></defs><g data-name="Group 124"><g transform="translate(.001 .003)" filter="url(#a)"><path data-name="Union 12" d="M10.154 28.588c-.778-.287 1.565-1.324 2.973-3.369a3.789 3.789 0 00.327-.687 9.949 9.949 0 01-2.711-6.8A10.545 10.545 0 0121.545 7.46a10.545 10.545 0 0110.8 10.269 10.545 10.545 0 01-10.8 10.269 11.152 11.152 0 01-5.979-1.715c-1.881 1.037-4.4 2.331-5.245 2.331a.486.486 0 01-.167-.026z" fill="none" stroke="#6e6e6e" stroke-width="2"/></g><g data-name="Group 60" fill="none" stroke="#6e6e6e" stroke-width="2"><path data-name="Line 20" d="M19.226 16.021h7.416"/><path data-name="Line 23" d="M16.944 16.021h1.141"/><path data-name="Line 22" d="M16.944 19.444h9.698"/></g></g><g data-name="Ellipse 166" transform="translate(2.259)" fill="none" stroke="#6e6e6e"><circle cx="18.5" cy="18.5" r="18.5" stroke="none"/><circle cx="18.5" cy="18.5" r="18"/></g></svg>