<svg xmlns="http://www.w3.org/2000/svg" viewBox="0 0 13 14.768"><path data-name="Path 60" d="M12.6 11.363l-5.7 3.298a.788.788 0 01-.793 0L.4 11.363a.792.792 0 01-.4-.682v-6.6A.783.783 0 01.4 3.4L6.1.107a.788.788 0 01.793 0L12.6 3.4a.792.792 0 01.4.682v6.6a.828.828 0 01-.4.682z" fill="#8d6748"/><path data-name="Path 61" d="M6.488 1.471a.6.6 0 00-.316.088L1.607 4.194a.623.623 0 00-.316.543v5.27a.614.614 0 00.316.543l4.566 2.635a.61.61 0 00.631 0l4.566-2.635a.623.623 0 00.316-.543v-5.27a.614.614 0 00-.316-.543L6.804 1.559a.6.6 0 00-.316-.088zm0 .22a.415.415 0 01.206.059l4.57 2.635a.422.422 0 01.206.36v5.27a.422.422 0 01-.206.36l-4.57 2.634a.416.416 0 01-.206.059.4.4 0 01-.206-.059l-4.565-2.635a.422.422 0 01-.206-.36v-5.27a.422.422 0 01.206-.36l4.566-2.635a.438.438 0 01.206-.059zm-.424 4.595h.617a.067.067 0 00.051-.022 2.661 2.661 0 00.4-1.527.074.074 0 00-.073-.073h-1.38a.074.074 0 00-.073.073 2.687 2.687 0 00.4 1.527.067.067 0 00.051.022zm-.169-1.395h.969a.074.074 0 01.073.073 1.959 1.959 0 01-.286 1.086.1.1 0 01-.059.022h-.428a.067.067 0 01-.051-.022 2.007 2.007 0 01-.286-1.086.074.074 0 01.073-.073zm.617-.374a.306.306 0 00.1-.433c-.1-.147-.139-.272-.1-.323-.1.117-.257.242-.081.506a.414.414 0 01.081.25zm-.294.022a.206.206 0 00.066-.294c-.066-.1-.1-.183-.066-.213-.066.081-.169.161-.051.345a.3.3 0 01.053.162zm-.022 1.446h.368a.063.063 0 00.044-.022 1.178 1.178 0 00.213-.573s-.007.066-.184.132a1.8 1.8 0 01-.668.029 1.053 1.053 0 00.184.411.052.052 0 00.044.022zm-2.76 2.062V6.579h-.272l-.448.69-.448-.69h-.272v1.475h.257v-1.05l.455.683h.007l.463-.69v1.05zM5.08 6.608a.854.854 0 00-.308-.059.721.721 0 00-.308.059.7.7 0 00-.242.161.738.738 0 00-.161.242.806.806 0 00-.059.294v.007a.776.776 0 00.059.294.684.684 0 00.154.242.7.7 0 00.242.161.853.853 0 00.308.059.722.722 0 00.308-.059.7.7 0 00.242-.161.738.738 0 00.162-.242.806.806 0 00.059-.294v-.007a.776.776 0 00-.059-.294.684.684 0 00-.154-.242.7.7 0 00-.24-.16zm.176.712a.628.628 0 01-.037.2.606.606 0 01-.1.161.587.587 0 01-.154.11.437.437 0 01-.2.044.46.46 0 01-.2-.044.587.587 0 01-.154-.11.5.5 0 01-.1-.169.637.637 0 01-.037-.206v-.007a.63.63 0 01.037-.2.607.607 0 01.1-.161.588.588 0 01.154-.11.468.468 0 01.4 0 .587.587 0 01.154.11.5.5 0 01.1.169.636.636 0 01.037.206v.011zm1.086-.22a.606.606 0 01.1-.161.589.589 0 01.154-.11.407.407 0 01.191-.044.453.453 0 01.228.051 1.056 1.056 0 01.184.132l.169-.191a1.286 1.286 0 00-.11-.1.7.7 0 00-.125-.073l-.154-.044a1.43 1.43 0 00-.184-.015.824.824 0 00-.308.059.7.7 0 00-.242.162.847.847 0 00-.154.242.775.775 0 00-.059.294v.007a.8.8 0 00.059.294.684.684 0 00.154.242.727.727 0 00.529.22.9.9 0 00.2-.015.545.545 0 00.154-.051.639.639 0 00.136-.075.833.833 0 00.117-.11l-.169-.169a1.376 1.376 0 01-.191.139.435.435 0 01-.228.051.558.558 0 01-.191-.044.458.458 0 01-.154-.11.5.5 0 01-.1-.169.637.637 0 01-.037-.205V7.3a.63.63 0 01.037-.2zm1.549-.521v1.468h.257V7.43h.7v.617h.257V6.579h-.257v.609h-.7v-.609h-.254zm2.819 1.116l.147.352h.272l-.646-1.475h-.235l-.646 1.475h.262l.154-.352h.69zm-.345-.815l.25.587h-.5l.25-.587zM1.813 8.59h9.36v-.081h-9.36zm5.381-2.84c0 .029-.007.051-.007.081h3.986V5.75H7.197zm-1.637 0H1.816v.081h3.748c0-.029-.007-.051-.007-.081z" fill="#fff"/></svg>