<svg xmlns="http://www.w3.org/2000/svg" viewBox="0 0 25 25"><g data-name="Ellipse 24" fill="#fff" stroke="#00546b"><circle cx="12.5" cy="12.5" r="12.5" stroke="none"/><circle cx="12.5" cy="12.5" r="12" fill="none"/></g><g fill="#00546b"><path data-name="Path 58" d="M19.195 16.63a4.965 4.965 0 00-2.081.3c-.161.064-.418.064-.44.268.086.086.1.225.172.343a2.514 2.514 0 00.558.654c.225.172.451.343.686.493.418.257.89.408 1.3.665.236.15.472.343.708.5.118.086.193.225.343.279V20.1c-.075-.1-.1-.236-.172-.343-.107-.107-.215-.2-.322-.311a5.087 5.087 0 00-1.115-1.083c-.343-.236-1.094-.558-1.233-.955l-.021-.021a4.362 4.362 0 00.74-.172c.365-.1.7-.075 1.073-.172.172-.043.343-.1.515-.15v-.1c-.193-.193-.332-.45-.536-.633a14.3 14.3 0 00-1.77-1.319c-.333-.215-.762-.354-1.116-.536-.129-.064-.343-.1-.418-.2a4.326 4.326 0 01-.44-.826 27.485 27.485 0 01-.88-1.866 11.408 11.408 0 00-.547-1.223 10.811 10.811 0 00-4.154-4.007 5.156 5.156 0 00-1.373-.44c-.268-.011-.536-.032-.8-.043a4.268 4.268 0 01-.496-.375c-.612-.386-2.188-1.223-2.639-.118-.29.7.429 1.384.676 1.738a5.052 5.052 0 01.547.8c.075.182.1.375.172.568a12.878 12.878 0 00.557 1.444 5.186 5.186 0 00.4.665c.086.118.236.172.268.365a3.072 3.072 0 00-.247.8 4.725 4.725 0 00.311 3.6c.172.268.579.858 1.126.633.483-.193.375-.8.515-1.341.032-.129.011-.215.075-.3v.022c.15.3.3.59.44.89a6.125 6.125 0 001.394 1.437c.258.193.461.525.783.643v-.032h-.024a1.186 1.186 0 00-.247-.215 5.2 5.2 0 01-.558-.643 13.8 13.8 0 01-1.2-1.952c-.172-.332-.322-.7-.461-1.03-.064-.129-.064-.322-.172-.386a4.037 4.037 0 00-.515.729 6.048 6.048 0 00-.3 1.62c-.043.011-.022 0-.043.022-.343-.086-.461-.44-.59-.74a4.639 4.639 0 01-.1-2.864c.075-.225.4-.933.268-1.148-.064-.2-.279-.322-.4-.483a4.322 4.322 0 01-.386-.686c-.251-.595-.381-1.26-.659-1.86a5.709 5.709 0 00-.536-.826 5.31 5.31 0 01-.586-.837c-.057-.118-.133-.311-.047-.44a.171.171 0 01.147-.143c.139-.118.536.032.676.1a5.467 5.467 0 011.062.536c.15.107.311.311.5.365h.232c.343.075.729.021 1.051.118a6.854 6.854 0 011.545.74 9.516 9.516 0 013.346 3.669c.129.247.182.472.3.729.225.526.5 1.062.729 1.577a7.053 7.053 0 00.759 1.437c.161.225.8.343 1.094.461a7.607 7.607 0 01.74.3c.365.225.729.483 1.073.729.172.129.708.4.74.611z"/><path data-name="Path 59" d="M8.255 7.309a1.7 1.7 0 00-.44.054v.024h.021a3.457 3.457 0 00.343.44c.086.172.161.343.247.515l.021-.021a.605.605 0 00.225-.536 2.4 2.4 0 01-.129-.225c-.063-.112-.203-.165-.288-.251z"/></g></svg>