<svg xmlns="http://www.w3.org/2000/svg" xmlns:xlink="http://www.w3.org/1999/xlink" class="svg-performance" viewBox="0 0 149 91.534"><defs><linearGradient id="g" x1=".128" y1=".433" x2=".946" y2=".786" gradientUnits="objectBoundingBox"><stop offset="0" stop-color="#1bd1f4"/><stop offset="1" stop-color="#1597ff"/></linearGradient><linearGradient id="i" x1="-1.061" y1=".838" x2="1.941" y2=".898" xlink:href="#g"/><linearGradient id="k" x1="-.736" y1=".929" x2="2.215" y2="1.043" xlink:href="#g"/><filter id="h" x="0" y="0" width="149" height="91.534" filterUnits="userSpaceOnUse"><feOffset dy="3"/><feGaussianBlur stdDeviation="3" result="blur"/><feFlood flood-opacity=".149"/><feComposite operator="in" in2="blur"/><feComposite in="SourceGraphic"/></filter></defs><g data-name="Group 1" transform="translate(-513 -432)"><g transform="translate(513 432)" filter="url(#h)"><path data-name="Path 26" d="M582.484 450.256c29.453 0 53.693 23.976 56.727 54.75a7.06 7.06 0 006.87 6.529 7.213 7.213 0 006.881-8.151C649.339 466.607 621.489 438 587.67 438c-35.723 0-64.786 31.92-65.669 71.671a1.784 1.784 0 001.732 1.864 1.777 1.777 0 001.728-1.773c.873-33.024 26.069-59.506 57.023-59.506z" transform="translate(-513 -432)" fill="url(#g)"/></g><path data-name="Path 27" d="M617.607 535.809c-2.257 3.6-1.389 8.207 1.938 10.294s7.855.864 10.112-2.734S649.725 498 649.725 498s-29.861 34.212-32.118 37.809zm11.86 4.531c-1.818 2.9-5.319 3.978-7.818 2.41s-3.051-5.189-1.231-8.087 25.549-30.673 25.549-30.673-14.681 33.451-16.5 36.35z" transform="rotate(-5.13 284.555 959.934)" fill="#56d2f7"/><rect data-name="Rectangle 94" width=".936" height="11.229" rx=".468" transform="rotate(17.356 -1273.9 2227.756)" fill="url(#i)"/><rect data-name="Rectangle 95" width=".936" height="5.874" rx=".468" transform="rotate(16.356 -1383.864 2355.242)" fill="url(#k)"/></g></svg>