<svg xmlns="http://www.w3.org/2000/svg" viewBox="0 0 13 13"><defs><radialGradient id="a" cx="23.174" cy="81.678" r="9.078" gradientTransform="translate(0 -.345)" gradientUnits="userSpaceOnUse"><stop offset="0" stop-color="#34364e" stop-opacity=".98"/><stop offset="1" stop-color="#0c0824"/></radialGradient></defs><path data-name="Path 70" d="M24.8 155.549h11.948v11.945H24.8z" transform="translate(-24.275 -155.021)" fill="url(#a)"/><path data-name="Path 71" d="M.542.554h11.916v11.89H.542zM0 13h13V0H0zm8.764-7.667c-.428 0-.574.222-.574.406 0 .2.1.339.672.644.85.422 1.116.828 1.116 1.422a1.371 1.371 0 01-1.555 1.367 2.308 2.308 0 01-1.11-.239c-.038-.017-.043-.044-.043-.089v-.817c0-.056.027-.072.065-.044a1.974 1.974 0 001.089.328c.428 0 .607-.183.607-.433 0-.2-.125-.378-.672-.667-.769-.378-1.089-.761-1.089-1.4A1.344 1.344 0 018.765 4.5a2.435 2.435 0 01.97.156.124.124 0 01.054.111v.761c0 .044-.027.072-.081.056a1.794 1.794 0 00-.942-.25zm-4.658.661c.125.011.222.011.439.011.634 0 1.23-.228 1.23-1.111 0-.706-.428-1.061-1.148-1.061-.217 0-.423.011-.52.017zm-.964-2.95c0-.039.076-.067.119-.067.347-.017.861-.028 1.4-.028a1.812 1.812 0 012.085 1.922 1.956 1.956 0 01-2.221 2.017c-.206 0-.276-.011-.423-.011V9.01c0 .044-.016.067-.065.067h-.83c-.043 0-.065-.017-.065-.067V3.044z" fill="#31c5f0"/></svg>