<svg xmlns="http://www.w3.org/2000/svg" viewBox="0 0 12.677 11.279"><path data-name="Path 34" d="M10.423 3.656q-.2-.069-.408-.129.034-.139.063-.278c.309-1.5.107-2.708-.583-3.105-.661-.381-1.743.016-2.835.967q-.161.141-.316.29-.1-.1-.21-.194C4.989.191 3.842-.238 3.153.161c-.661.382-.856 1.518-.578 2.939q.042.211.094.42c-.162.046-.319.1-.469.148C.858 4.136 0 4.868 0 5.63c0 .786.92 1.574 2.318 2.052q.17.058.343.107-.056.225-.1.453c-.265 1.4-.058 2.505.6 2.885.681.392 1.823-.011 2.935-.983q.132-.115.265-.244.167.161.343.313c1.077.927 2.141 1.3 2.8.92.68-.394.9-1.585.614-3.034q-.033-.166-.076-.339.12-.036.236-.074c1.453-.481 2.4-1.26 2.4-2.056 0-.763-.885-1.5-2.254-1.973z" fill="#53c1de"/><path data-name="Path 35" d="M10.115 7.174c-.069.023-.141.045-.213.067a12.739 12.739 0 00-.643-1.609 12.734 12.734 0 00.618-1.586c.13.038.256.077.378.119 1.175.4 1.892 1 1.892 1.464 0 .491-.774 1.129-2.031 1.545zm-.522 1.034a4.6 4.6 0 01.061 1.677 1.122 1.122 0 01-.416.789c-.4.232-1.256-.069-2.179-.864q-.159-.137-.319-.291a12.752 12.752 0 001.065-1.352 12.661 12.661 0 001.72-.265q.039.157.069.307zm-5.275 2.425a1.121 1.121 0 01-.891.034c-.4-.231-.567-1.123-.34-2.32q.041-.212.093-.422a12.754 12.754 0 001.711.248 13.2 13.2 0 001.09 1.347q-.118.114-.242.223a4.6 4.6 0 01-1.422.89zM2.486 7.171a4.6 4.6 0 01-1.481-.786 1.122 1.122 0 01-.474-.755c0-.463.689-1.053 1.839-1.454q.216-.075.437-.138a13.017 13.017 0 00.619 1.6 13.215 13.215 0 00-.627 1.627q-.157-.041-.313-.094zM3.1 2.99C2.861 1.77 3.02.849 3.419.619c.425-.246 1.364.1 2.355.984.063.056.127.115.191.176a13 13 0 00-1.082 1.339 13.254 13.254 0 00-1.695.267q-.049-.195-.087-.391zm5.478 1.353q-.186-.322-.386-.635c.405.051.793.119 1.158.2a11.58 11.58 0 01-.406 1.094q-.176-.334-.365-.661zM6.344 2.166a11.605 11.605 0 01.747.9q-.75-.035-1.5 0c.245-.323.499-.625.754-.9zm-2.248 2.18q-.187.324-.358.657a10.933 10.933 0 01-.4-1.1c.362-.081.749-.147 1.151-.2q-.206.319-.393.644zm.4 3.243a11.55 11.55 0 01-1.17-.188c.112-.362.25-.739.412-1.121q.172.333.36.657t.4.652zm1.862 1.54a12.24 12.24 0 01-.764-.915q.365.014.743.014t.767-.017a11.54 11.54 0 01-.744.918zm2.59-2.869a11.526 11.526 0 01.426 1.117 11.511 11.511 0 01-1.185.2q.2-.319.39-.646t.368-.673zm-.838.4q-.289.5-.609.983a17.769 17.769 0 01-2.313.005q-.329-.48-.621-.985t-.542-1.024q.251-.522.54-1.024.289-.5.616-.981a15.14 15.14 0 012.315 0q.323.478.612.977t.548 1.019q-.254.524-.546 1.028zM9.229.6c.425.245.591 1.235.323 2.532q-.026.127-.057.253a12.994 12.994 0 00-1.7-.268 12.748 12.748 0 00-1.074-1.34q.143-.138.292-.268C7.954.694 8.831.372 9.23.602z" fill="#fff"/><path data-name="Path 36" d="M6.339 4.519a1.11 1.11 0 11-1.11 1.11 1.11 1.11 0 011.11-1.11" fill="#53c1de"/></svg>