<svg xmlns="http://www.w3.org/2000/svg" class="svg-responsive" viewBox="0 0 185 105"><defs><filter id="d" x="0" y="33" width="46" height="72" filterUnits="userSpaceOnUse"><feOffset dy="3"/><feGaussianBlur stdDeviation="3" result="blur"/><feFlood flood-opacity=".161"/><feComposite operator="in" in2="blur"/><feComposite in="SourceGraphic"/></filter><filter id="e" x="101" y="36" width="84" height="67" filterUnits="userSpaceOnUse"><feOffset dy="3"/><feGaussianBlur stdDeviation="3" result="blur-2"/><feFlood flood-opacity=".161"/><feComposite operator="in" in2="blur-2"/><feComposite in="SourceGraphic"/></filter></defs><g data-name="Group 108"><path data-name="Subtraction 3" d="M109 81H5a5.006 5.006 0 01-5-5V5a5.006 5.006 0 015-5h104a5.006 5.006 0 015 5v71a5.006 5.006 0 01-5 5zM10 4a5.006 5.006 0 00-5 5v63a5.006 5.006 0 005 5h94a5.006 5.006 0 005-5V9a5.006 5.006 0 00-5-5z" transform="translate(28)" fill="#56d2f7"/><g filter="url(#d)"><rect data-name="Rectangle 44" width="28" height="54" rx="6" transform="translate(9 39)" fill="#1bd1f4"/></g><g filter="url(#e)"><rect data-name="Rectangle 45" width="66" height="49" rx="5" transform="translate(110 42)" fill="#1597ff"/></g></g></svg>