<svg xmlns="http://www.w3.org/2000/svg" viewBox="0 0 139.5 121.75"><defs><style>.cls-1{fill:none;stroke:#000;stroke-linejoin:bevel;stroke-width:4px}</style></defs><g id="Layer_2" data-name="Layer 2"><g id="Layer_1-2" data-name="Layer 1"><path d="M29.08 70.63l-5.52 16.71h-7.09l18.05-53.12h8.27l18.13 53.12h-7.33l-5.67-16.71zm17.42-5.36L41.3 50c-1.19-3.46-2-6.62-2.76-9.69h-.16c-.79 3.15-1.65 6.38-2.68 9.61l-5.2 15.35zM68.72 34.85a79.81 79.81 0 0113.17-1c6.77 0 11.74 1.57 14.89 4.41a14.26 14.26 0 014.65 11.11c0 4.81-1.42 8.59-4.1 11.35-3.62 3.86-9.53 5.83-16.23 5.83a23.34 23.34 0 01-5.52-.47v21.26h-6.86zm6.86 25.61a22.7 22.7 0 005.68.56c8.27 0 13.31-4 13.31-11.35 0-7-5-10.41-12.53-10.41a28.35 28.35 0 00-6.46.56zM117.51 34.22v53.12h-6.86V34.22z"/><path class="cls-1" d="M2 83v23.92a13 13 0 0013.22 12.83h109.06a13 13 0 0013.22-12.83V83M137.5 38.75V14.83A13 13 0 00124.28 2H15.22A13 13 0 002 14.83v23.92"/></g></g></svg>