<svg xmlns="http://www.w3.org/2000/svg" viewBox="0 0 25 18.739"><path d="M21.522 10.759a5.15 5.15 0 00-2.266.527 4.661 4.661 0 01-.508-1.172 3.242 3.242 0 01-.044-.986 7.9 7.9 0 01.3-1.065c0-.044-.054-.259-.557-.264s-.938.1-.986.23a5.608 5.608 0 00-.21.747 17.773 17.773 0 01-1.528 2.94 3 3 0 01-.347-.859 3.241 3.241 0 01-.044-.986 7.908 7.908 0 01.3-1.065c0-.044-.054-.259-.557-.264s-.938.1-.986.23-.1.444-.21.747-1.323 3.018-1.641 3.726c-.161.361-.3.649-.405.845s0 .015-.015.034l-.137.259c-.068.122-.142.239-.176.239a1.629 1.629 0 01.01-.776c.181-.943.62-2.412.615-2.466 0-.024.083-.283-.283-.415a.445.445 0 00-.513.088c-.029 0-.054.078-.054.078s.4-1.655-.757-1.655a3.425 3.425 0 00-2.212 1.5c-.313.171-.977.532-1.68.918-.269.146-.547.3-.811.444l-.054-.059c-1.4-1.489-3.98-2.544-3.872-4.546.039-.728.293-2.647 4.961-4.971 3.824-1.9 6.885-1.382 7.418-.22.757 1.66-1.636 4.747-5.611 5.191a2.981 2.981 0 01-2.51-.635c-.21-.23-.239-.239-.317-.2-.127.068-.049.273 0 .4a2.357 2.357 0 001.432 1.138 7.609 7.609 0 004.654-.459c2.407-.933 4.287-3.521 3.736-5.684-.562-2.2-4.214-2.925-7.667-1.7a17.38 17.38 0 00-5.884 3.375C.201 5.745-.101 7.298.026 7.943c.444 2.3 3.614 3.8 4.883 4.908a5.04 5.04 0 00-.176.1c-.635.308-3.052 1.574-3.658 2.908-.684 1.514.107 2.6.635 2.749a3.9 3.9 0 004.2-1.7 4.217 4.217 0 00.376-3.882l-.015-.029.5-.293c.322-.19.64-.366.918-.518a6.08 6.08 0 00-.327 1.66 3.462 3.462 0 00.754 2.413.827.827 0 00.6.2c.537 0 .781-.444 1.05-.977.332-.649.625-1.4.625-1.4s-.366 2.036.635 2.036c.366 0 .732-.474.9-.718s.01-.015.029-.049.04-.061.059-.093v-.01c.146-.254.474-.835.962-1.8.63-1.24 1.235-2.793 1.235-2.793a8.913 8.913 0 00.235 1.004 9.626 9.626 0 00.522 1.172c-.146.205-.234.322-.234.322-.117.156-.249.322-.386.488a14.192 14.192 0 00-1.172 1.47.4.4 0 00.107.537.977.977 0 00.615.1 2.741 2.741 0 00.918-.21 3.179 3.179 0 00.791-.415 1.761 1.761 0 00.757-1.558 3.132 3.132 0 00-.288-1.1c.044-.063.088-.127.132-.2a20.613 20.613 0 001.367-2.368 8.913 8.913 0 00.239 1.006 7.053 7.053 0 00.444 1.006 4.341 4.341 0 00-1.333 1.724c-.288.83-.063 1.206.361 1.294a1.3 1.3 0 00.669-.137 3.031 3.031 0 00.845-.435 1.91 1.91 0 00.933-1.543 2.958 2.958 0 00-.21-.913 4.757 4.757 0 012.422-.278c2.173.254 2.6 1.611 2.52 2.178a1.459 1.459 0 01-.689.977c-.151.093-.2.127-.186.2.02.1.088.1.22.078a1.69 1.69 0 001.182-1.509c.059-1.343-1.216-2.808-3.477-2.793zM4.762 16.41c-.718.786-1.729 1.084-2.158.83-.464-.269-.283-1.426.6-2.261a11.49 11.49 0 011.694-1.265c.1-.063.259-.156.444-.269a.521.521 0 01.049-.029l.112-.068a3.115 3.115 0 01-.742 3.062zm5.254-3.569c-.249.61-.776 2.178-1.094 2.09-.274-.073-.439-1.26-.054-2.432a5.429 5.429 0 01.848-1.568c.4-.439.825-.586.933-.405a8.222 8.222 0 01-.633 2.315zm4.331 2.07c-.107.054-.205.093-.249.064s.044-.093.044-.093.542-.581.757-.85c.122-.156.269-.337.425-.542v.059a1.8 1.8 0 01-.977 1.362zm3.34-.762c-.078-.059-.068-.239.2-.806a3.019 3.019 0 01.742-.957 1.208 1.208 0 01.073.42 1.374 1.374 0 01-1.019 1.343z" fill="#cf649a"/></svg>