<svg xmlns="http://www.w3.org/2000/svg" xmlns:xlink="http://www.w3.org/1999/xlink" class="svg-simple" viewBox="0 0 89 95"><defs><linearGradient id="a" x1=".166" y1=".13" x2=".898" y2=".931" gradientUnits="objectBoundingBox"><stop offset="0" stop-color="#1bd1f4"/><stop offset="1" stop-color="#1597ff"/></linearGradient><filter id="b" x="0" y="0" width="89" height="95" filterUnits="userSpaceOnUse"><feOffset dy="3"/><feGaussianBlur stdDeviation="3" result="blur"/><feFlood flood-opacity=".161"/><feComposite operator="in" in2="blur"/><feComposite in="SourceGraphic"/></filter></defs><g data-name="Group 107"><g filter="url(#b)"><path data-name="Subtraction 7" d="M46.968 77H25.159a6.007 6.007 0 01-6-6v-.985a6 6 0 01.724-2.859A35.561 35.561 0 015.525 54.34 35.4 35.4 0 0135.5 0a35.524 35.524 0 0132.71 21.607 35.336 35.336 0 01-2.479 32.325 35.6 35.6 0 01-13.749 12.786 5.978 5.978 0 01.986 3.3V71a6.007 6.007 0 01-6 6zM35.5 4.739a30.868 30.868 0 00-12.229 59.154v6.368a3 3 0 003 3h19.37a3 3 0 003-3v-6.784A30.869 30.869 0 0035.5 4.739z" transform="translate(9 6)" fill="url(#a)"/></g><path data-name="Path 25" d="M.819 0H21.6c.819 0 .645.9.645 2v2c0 1.1-2.29 2-3.108 2H2.845C2.026 6 0 5.1 0 4V2C0 .9 0 0 .819 0z" transform="translate(33.882 86)" fill="#56d2f7"/></g></svg>