<svg xmlns="http://www.w3.org/2000/svg" viewBox="0 0 37.493 41.683"><defs><filter id="a" x=".018" y="11.896" width="37.475" height="29.787" filterUnits="userSpaceOnUse"><feOffset dy="3"/><feGaussianBlur stdDeviation="3" result="blur"/><feFlood flood-opacity=".161"/><feComposite operator="in" in2="blur"/><feComposite in="SourceGraphic"/></filter></defs><g data-name="Group 58"><g transform="translate(-.002 -.003)" filter="url(#a)"><g data-name="Subtraction 11" fill="none"><path d="M18.758 29.687a10.892 10.892 0 01-5.865-1.7A10.457 10.457 0 019.02 23.6a10.607 10.607 0 016.376-5.558 4.406 4.406 0 00.859.625 3.829 3.829 0 002.19.678 3.845 3.845 0 002.165-.664 4.394 4.394 0 001.03-.781 10.859 10.859 0 014.03 2.077 10.479 10.479 0 012.825 3.623 10.459 10.459 0 01-3.875 4.39 10.891 10.891 0 01-5.862 1.697z"/><path d="M18.758 27.687a8.894 8.894 0 004.79-1.383 8.524 8.524 0 002.676-2.7 8.54 8.54 0 00-1.825-2.083 8.81 8.81 0 00-2.346-1.379c-.13.087-.263.17-.4.247a5.836 5.836 0 01-3.208.955 5.822 5.822 0 01-3.247-.978 6.409 6.409 0 01-.112-.066 8.616 8.616 0 00-3.796 3.303 8.521 8.521 0 002.678 2.7 8.896 8.896 0 004.79 1.384m0 2c-2.094 0-4.122-.587-5.865-1.697a10.457 10.457 0 01-3.873-4.387c1.229-2.629 3.553-4.656 6.376-5.561.26.241.548.451.86.624a3.83 3.83 0 002.19.678c.775 0 1.523-.23 2.164-.663a4.394 4.394 0 001.03-.781 10.859 10.859 0 014.03 2.077c1.2.987 2.177 2.241 2.825 3.626a10.459 10.459 0 01-3.873 4.387 10.891 10.891 0 01-5.864 1.697z" fill="#6e6e6e"/></g></g><g data-name="Ellipse 151" transform="translate(13.374 7.317)" fill="none" stroke="#6e6e6e" stroke-width="2"><circle cx="4.97" cy="4.97" r="4.97" stroke="none"/><circle cx="4.97" cy="4.97" r="3.97"/></g></g><g data-name="Ellipse 164" fill="none" stroke="#6e6e6e"><circle cx="18.5" cy="18.5" r="18.5" stroke="none"/><circle cx="18.5" cy="18.5" r="18"/></g></svg>