<svg xmlns="http://www.w3.org/2000/svg" xmlns:xlink="http://www.w3.org/1999/xlink" class="svg-accessible" viewBox="0 0 89.466 94.813"><defs><linearGradient id="l" x1=".12" y1="-.933" x2=".5" y2="1" gradientUnits="objectBoundingBox"><stop offset="0" stop-color="#1bd1f4"/><stop offset="1" stop-color="#1597ff"/></linearGradient><linearGradient id="n" x1="-.007" y1=".296" x2="1.111" y2=".73" xlink:href="#l"/><filter id="m" x="0" y="0" width="89.466" height="92.112" filterUnits="userSpaceOnUse"><feOffset dy="3"/><feGaussianBlur stdDeviation="3" result="blur"/><feFlood flood-opacity=".161"/><feComposite operator="in" in2="blur"/><feComposite in="SourceGraphic"/></filter></defs><g transform="translate(-1482.419 -1369.187)"><rect data-name="Rectangle 73" width="30" height="6" rx="2" transform="translate(1498 1458)" fill="#ffcb5d"/><g transform="translate(1482.42 1369.19)" filter="url(#m)"><path data-name="key" d="M67.835 79.95l-1.414-1.414a2 2 0 010-2.829l3-3-2.758-2.757-3 3a2 2 0 01-2.829 0l-.707-.707a2 2 0 010-2.829l3-3-19.705-19.705a22.653 22.653 0 01-4.332 2.555A23.427 23.427 0 018.562 38.152a21.92 21.92 0 0110.81-29.7A23.426 23.426 0 0149.9 19.564a21.954 21.954 0 01-1.628 22.094L77.2 70.586a2 2 0 010 2.829L75.613 75l-4.95 4.95a2 2 0 01-2.829 0zM14.186 23.382A15.816 15.816 0 0023.9 43.5a15.816 15.816 0 0020.373-9.161 15.816 15.816 0 00-9.718-20.113 16.336 16.336 0 00-5.593-.992 15.625 15.625 0 00-14.776 10.148z" transform="translate(2.68 -.42)" fill="url(#n)"/></g></g></svg>