<svg xmlns="http://www.w3.org/2000/svg" viewBox="0 0 13 13"><path data-name="Path 67" d="M.519.519h11.962v11.962H.519z" fill="#2e001e"/><path data-name="Path 68" d="M0 0v13h13V0zm.542.556h11.916v11.888H.542z" fill="#ff2bc2"/><path data-name="Path 69" d="M9.521 5.442a.725.725 0 00-.322-.059c-.7 0-1.167.572-1.167 1.521 0 1.085.478 1.521 1.1 1.521a.994.994 0 00.383-.065V5.442zm-2.49 1.509a2.227 2.227 0 012.2-2.446 2.326 2.326 0 01.289.012V2.984a.057.057 0 01.056-.059h.895c.044 0 .056.018.056.047v5.387a4.45 4.45 0 00.028.578c0 .041 0 .047-.033.065a3.153 3.153 0 01-1.423.342c-1.206 0-2.067-.79-2.067-2.393zm-1.89-.955l1.556 3.2c.028.047.011.094-.033.094h-.967a.109.109 0 01-.117-.077q-.533-1.167-1.089-2.422H4.48c-.333.79-.7 1.65-1.056 2.428a.106.106 0 01-.1.065h-.922c-.056 0-.061-.047-.033-.083l1.523-3.106-1.473-3.089a.052.052 0 01.039-.088h.956c.056 0 .083.012.1.065.35.784.706 1.556 1.039 2.346h.011c.322-.778.678-1.562 1.017-2.334.028-.047.044-.077.1-.077h.895c.044 0 .061.035.033.088z" fill="#ff2bc2"/></svg>