<svg xmlns="http://www.w3.org/2000/svg" xmlns:xlink="http://www.w3.org/1999/xlink" id="codepen" viewBox="0 0 76.083 13.732">
    <path id="Path_127" data-name="Path 127" d="M4.782,3.615a3.483,3.483,0,0,1,2.245.819l.827-.986a4.781,4.781,0,1,0,0,7.321l-.827-.986A3.493,3.493,0,1,1,4.782,3.615ZM31.25,2.6H28.676a.644.644,0,0,0-.643.643v7.724a.644.644,0,0,0,.643.644h2.575a4.506,4.506,0,1,0,0-9.011h0Zm0,7.724H29.32V3.891h1.931a3.218,3.218,0,0,1,0,6.437h0Zm7.991-7.08v7.724a.644.644,0,0,0,.644.643h5.364V10.328h-4.72V7.753h3V6.466h-3V3.891h4.72V2.6H39.885a.642.642,0,0,0-.643.643h0Zm19.484,0v7.724a.644.644,0,0,0,.644.643h5.364V10.328h-4.72V7.753h3V6.466h-3V3.891h4.72V2.6H59.369a.643.643,0,0,0-.644.643h0ZM52.6,2.6H49.81a.644.644,0,0,0-.643.643v8.368h1.287V7.753H52.6a2.575,2.575,0,1,0,0-5.149h0Zm0,3.862H50.454V3.891H52.6a1.287,1.287,0,1,1,0,2.574ZM74.8,2.6v6.59L69.5,2.835a.644.644,0,0,0-1.138.412v8.368h1.287V5.025l5.3,6.358a.643.643,0,0,0,1.137-.412V2.6H74.8ZM24.376,4.915c0-.017-.006-.033-.01-.05s-.006-.019-.009-.029-.01-.029-.015-.043-.009-.019-.013-.029-.013-.026-.02-.039L24.291,4.7a.592.592,0,0,0-.074-.093l-.024-.023-.033-.028-.027-.02-.01-.007L17.847.343a.589.589,0,0,0-.654,0L10.917,4.526l-.01.007-.027.02a.461.461,0,0,0-.057.051.533.533,0,0,0-.075.094l-.017.027c-.007.013-.014.026-.02.039l-.013.029q-.008.021-.015.043l-.009.028c0,.016-.007.033-.01.05s0,.017,0,.025a.593.593,0,0,0-.005.077V9.2a.531.531,0,0,0,.006.077c0,.009,0,.017.006.026a.353.353,0,0,0,.011.05c0,.009.006.019.009.029s.009.03.015.043.009.018.013.028a.477.477,0,0,0,.063.1c.006.009.013.017.02.026a.314.314,0,0,0,.029.032.148.148,0,0,0,.024.022l.033.028c.009.007.018.013.026.02s.006.006.009.007l6.274,4.186a.58.58,0,0,0,.327.1.593.593,0,0,0,.327-.1l6.276-4.184.01-.007.027-.02.034-.028.024-.023a.53.53,0,0,0,.049-.058q.022-.03.042-.063c.008-.013.014-.026.02-.039l.013-.029q.008-.021.015-.043l.009-.029c0-.016.007-.033.01-.05s0-.017,0-.025a.579.579,0,0,0,.005-.077V5.017a.628.628,0,0,0-.005-.077c0-.009,0-.017-.006-.026h0ZM17.52,8.505l-2.087-1.4,2.087-1.4,2.087,1.4Zm-.59-3.817L14.372,6.4,12.307,5.018,16.93,1.936V4.688ZM13.31,7.109,11.834,8.1V6.122l1.476.987Zm1.061.711L16.93,9.531v2.752L12.306,9.2l2.065-1.381h0ZM18.11,9.53l2.558-1.711L22.733,9.2,18.11,12.283Zm3.62-2.421,1.476-.987V8.1l-1.476-.988ZM20.668,6.4,18.11,4.689V1.936l4.623,3.082L20.668,6.4Z" transform="translate(0 -0.244)" fill="#565656" />
  </svg>
