<svg xmlns="http://www.w3.org/2000/svg" xmlns:xlink="http://www.w3.org/1999/xlink" viewBox="0 0 83.087 18.056"><defs><clipPath id="b"><path data-name="Path 101" d="M10.95 18.782a2.154 2.154 0 01.181 1.026 2.838 2.838 0 01-.707.08 4.69 4.69 0 01-1.966-.07 3.027 3.027 0 01-1.891-1.654l.037-.034a.294.294 0 00-.123-.011 8.261 8.261 0 01-1.907.144 7.884 7.884 0 01-3.964-1.98s1.259-.308 1.259-.568-1.438-.74-1.438-.74-.218-1.2 1.324-2.4A9.422 9.422 0 014.437 11 8.051 8.051 0 01.61 9.03s1.259-.308 1.259-.568-1.438-.74-1.438-.74-.218-1.2 1.324-2.4a7.029 7.029 0 013.992-1.828c1.3-.066 1.731-.067 1.731-.067S8.607 1.9 9.2 1.9c.3 0 4.64.923 5.016 1.524a1.558 1.558 0 00.752.7c.192.144.071.029.942.224 2.179.487 1.882.678 3.5.974.655.12 3.658-1.356 3.942-1.213a2.8 2.8 0 01-.28 2.168c-.516.832.414 1.52 0 2.562s.478 1.814.284 2.167-3.383-1.155-3.942-1.046a34.9 34.9 0 01-4.693 1.276 2.718 2.718 0 01.249.142c.192.144.071.029.942.224 2.179.487 1.882.678 3.5.974.655.12 3.658-1.356 3.942-1.213a2.8 2.8 0 01-.28 2.168c-.516.832.414 1.52 0 2.562s.478 1.814.284 2.167-3.383-1.155-3.942-1.046a31.972 31.972 0 01-5.725 1.448 14.018 14.018 0 01-2.736.116z" transform="translate(-.42 -1.904)" fill="none"/></clipPath><clipPath id="e"><path data-name="Path 90" d="M25.568 10.89l1.155.062.368.021c.332.019.611.037.825.051a27.317 27.317 0 012.994.432 20.211 20.211 0 014.523 1.554l.648.289a.238.238 0 00.319-.154.287.287 0 00-.138-.357l-.649-.289A20.615 20.615 0 0031 10.913a27.715 27.715 0 00-3.05-.439c-.216-.015-.5-.032-.83-.052l-.369-.021-1.157-.062-.381-.019-.107-.005h-.038a.274.274 0 00-.229.4l.02.046c.017.039.037.084.057.135.06.145.12.3.176.469a5.462 5.462 0 01.2.754q.024.133.037.254a4.21 4.21 0 01-.144 1.149c-.041.181-.088.371-.141.567-.065.241-.134.478-.2.7l-.067.211-.019.057-.006.019a.286.286 0 00.144.354.239.239 0 00.317-.161l.007-.022.02-.06.069-.219c.071-.231.143-.475.21-.724.055-.2.1-.4.147-.591a4.609 4.609 0 00.156-1.345q-.015-.147-.043-.3a6.048 6.048 0 00-.223-.838c-.033-.1-.068-.194-.1-.286z" transform="translate(-24.73 -10.313)" fill="none"/></clipPath><clipPath id="f"><path data-name="Rectangle 116" fill="none" d="M0 0h23.054v18.081H0z"/></clipPath><clipPath id="g"><path data-name="Path 91" d="M25.717 14.021q.048-.193.089-.377a4.726 4.726 0 00.156-1.363q-.015-.148-.043-.306a6.188 6.188 0 00-.223-.849c-.033-.1-.068-.2-.1-.29l.121.006 1.155.062.368.021c.332.019.611.037.825.052a26.991 26.991 0 012.994.437 20.036 20.036 0 014.522 1.574l.648.292a.237.237 0 00.319-.156.292.292 0 00-.138-.362l-.649-.292a20.436 20.436 0 00-4.617-1.6 27.385 27.385 0 00-3.05-.445c-.216-.015-.5-.033-.83-.052l-.369-.021-1.157-.063-.381-.02-.107-.005h-.038a.278.278 0 00-.229.407l.02.046c.017.04.037.085.057.137.06.147.12.307.176.475a5.59 5.59 0 01.2.764q.024.134.037.257a4.316 4.316 0 01-.144 1.164c-.036.164-.078.336-.124.513z" transform="translate(-24.949 -10.258)" fill="none"/></clipPath><clipPath id="h"><path data-name="Rectangle 118" fill="none" d="M0 0h23.054v18.314H0z"/></clipPath><clipPath id="i"><path data-name="Path 92" d="M21.15 11.549l.024.04c.02.035.043.075.067.121.07.13.14.273.2.423a3.9 3.9 0 01.246.743 1.87 1.87 0 01.043.376 3.239 3.239 0 01-.195 1.03 4.063 4.063 0 01-.136.347l-.044.1-.015.03a.259.259 0 00.086.336.216.216 0 00.313-.095c.015-.03.04-.082.072-.153.052-.117.1-.248.152-.388a3.748 3.748 0 00.223-1.2 2.4 2.4 0 00-.054-.485 4.4 4.4 0 00-.278-.845 6.207 6.207 0 00-.223-.461c-.046-.086-.082-.149-.1-.185a.215.215 0 00-.313-.07.261.261 0 00-.068.336z" transform="translate(-21.112 -11.166)" fill="none"/></clipPath><clipPath id="j"><path data-name="Path 94" d="M21.912 14.591q.026-.069.051-.142a3.847 3.847 0 00.223-1.221 2.463 2.463 0 00-.054-.492 4.507 4.507 0 00-.278-.857 6.379 6.379 0 00-.223-.467c-.046-.087-.082-.151-.1-.187a.213.213 0 00-.313-.071.267.267 0 00-.064.347l.024.041.067.123c.07.132.14.277.2.429a3.991 3.991 0 01.246.754 1.921 1.921 0 01.043.381 3.325 3.325 0 01-.195 1.045c-.039.114-.08.221-.121.318z" transform="translate(-21.112 -11.112)" fill="#f1a5ff"/></clipPath><clipPath id="l"><path data-name="Path 96" d="M25.568 32.917l1.155.062.368.021c.332.019.611.037.825.051a27.318 27.318 0 012.994.432 20.211 20.211 0 014.523 1.554l.648.289a.238.238 0 00.319-.154.287.287 0 00-.138-.357l-.649-.289A20.615 20.615 0 0031 32.941a27.713 27.713 0 00-3.05-.439c-.216-.015-.5-.032-.83-.052l-.369-.021-1.157-.062-.381-.019-.107-.005h-.038a.274.274 0 00-.229.4l.02.046c.017.039.037.084.057.135.06.145.12.3.176.469a5.462 5.462 0 01.2.754q.024.133.037.254a4.21 4.21 0 01-.144 1.149c-.041.181-.088.371-.141.567-.065.241-.134.478-.2.7l-.067.211-.019.057-.006.019a.286.286 0 00.144.355.239.239 0 00.317-.161l.007-.022.02-.06.069-.219c.071-.231.143-.475.21-.724.055-.2.1-.4.147-.591a4.609 4.609 0 00.156-1.345q-.015-.147-.043-.3a6.048 6.048 0 00-.223-.838c-.033-.1-.068-.194-.1-.286z" transform="translate(-24.73 -32.34)" fill="none"/></clipPath><clipPath id="m"><path data-name="Path 97" d="M25.718 36.022q.048-.191.089-.372a4.609 4.609 0 00.156-1.345q-.015-.147-.043-.3a6.047 6.047 0 00-.223-.838c-.033-.1-.068-.194-.1-.286l.121.006 1.155.062.368.021c.332.019.611.037.825.051a27.319 27.319 0 012.994.432A20.211 20.211 0 0135.58 35l.648.289a.238.238 0 00.319-.154.287.287 0 00-.138-.357l-.649-.289a20.615 20.615 0 00-4.617-1.584 27.713 27.713 0 00-3.05-.439c-.216-.015-.5-.032-.83-.052l-.369-.021-1.157-.062-.381-.019-.107-.005h-.038a.274.274 0 00-.229.4l.02.046c.017.039.037.084.057.135.06.145.12.3.176.469a5.462 5.462 0 01.2.754q.024.133.037.254a4.21 4.21 0 01-.144 1.149c-.036.162-.078.331-.124.506z" transform="translate(-24.951 -32.307)" fill="none"/></clipPath><clipPath id="n"><path data-name="Path 100" d="M21.912 36.592q.026-.068.051-.14a3.748 3.748 0 00.223-1.2 2.4 2.4 0 00-.054-.485 4.4 4.4 0 00-.278-.845 6.207 6.207 0 00-.223-.461c-.046-.086-.082-.149-.1-.185a.215.215 0 00-.313-.07.261.261 0 00-.064.342l.024.04c.02.035.043.075.067.121.07.13.14.273.2.423a3.9 3.9 0 01.246.743 1.87 1.87 0 01.043.376 3.239 3.239 0 01-.195 1.03c-.039.113-.08.218-.121.314z" transform="translate(-21.112 -33.162)" fill="#f1a5ff"/></clipPath><linearGradient id="c" x1=".5" x2=".5" y2=".994" gradientUnits="objectBoundingBox"><stop offset="0" stop-color="#e559ff"/><stop offset="1" stop-color="#924dff"/></linearGradient><linearGradient id="a" x1=".241" y1="-.682" x2=".658" y2=".992" gradientUnits="objectBoundingBox"><stop offset="0" stop-color="#f1a5ff"/><stop offset="1" stop-color="#ff686c"/></linearGradient><linearGradient id="d" x1=".5" y1="-.02" x2=".5" y2="1.027" gradientUnits="objectBoundingBox"><stop offset="0" stop-color="#6f3cff"/><stop offset="1" stop-color="#3633ff"/></linearGradient><linearGradient id="k" x1=".411" y1="-.001" x2=".582" y2=".962" xlink:href="#a"/></defs><g><g data-name="Group 36"><g data-name="Group 35" clip-path="url(#b)"><path data-name="Rectangle 114" fill="url(#c)" d="M0 0h23.625v6.619H0z" transform="translate(-.607)"/><path data-name="Path 88" d="M20.777 23.38l2.7-.37.061-.867V20.22l-.211-.677h-8.808v.677H.449v1.923l1.9.626 7.2.612h1.568" transform="translate(-.439 -13.667)" fill="url(#a)"/><path data-name="Path 89" d="M9.546 27.346h8.193v.882l5.877-.016v3.823h-12.2v.678H.449v-4.5l3.419-.246 5.679.044z" transform="translate(-.439 -18.87)" fill-rule="evenodd" fill="url(#d)"/><g data-name="Group 24" transform="translate(8.099 2.801)" clip-path="url(#e)"><g data-name="Group 23" transform="translate(-8.089 -2.801)" clip-path="url(#f)"><path data-name="Rectangle 115" fill="#974dff" d="M7.798 2.543h12.261V8.25H7.798z"/></g></g><g data-name="Group 26" transform="translate(8.172 2.783)" clip-path="url(#g)"><g data-name="Group 25" transform="translate(-8.162 -2.819)" clip-path="url(#h)"><path data-name="Rectangle 117" fill="#f1a5ff" d="M7.911 2.518h12.148v4.35H7.911z"/></g></g><g data-name="Group 28" transform="translate(6.893 3.086)" clip-path="url(#i)"><g data-name="Group 27" transform="translate(-6.883 -3.086)" clip-path="url(#f)"><path data-name="Rectangle 119" fill="#974dff" d="M6.611 2.825H8.25v4.52H6.611z"/></g></g><path data-name="Path 93" d="M7.693 6.546q.026-.069.051-.142a3.847 3.847 0 00.223-1.221 2.463 2.463 0 00-.054-.492 4.507 4.507 0 00-.278-.857 6.379 6.379 0 00-.223-.467c-.046-.087-.082-.151-.1-.187a.213.213 0 00-.313-.071.267.267 0 00-.064.347l.024.041.067.123c.07.132.14.277.2.429a3.991 3.991 0 01.246.754 1.921 1.921 0 01.043.381 3.325 3.325 0 01-.195 1.045c-.039.114-.08.221-.121.318z" fill="#f1a5ff"/><g data-name="Group 29" transform="translate(6.893 3.068)" clip-path="url(#j)"><path data-name="Rectangle 121" fill="#f1a5ff" d="M-6.884-3.111H16.17v18.334H-6.884z"/></g><path data-name="Path 95" d="M23.453 46.316H.4v-4.237h10.961v-.69h12.092z" transform="translate(-.406 -28.235)" fill="url(#k)"/><g data-name="Group 31" transform="translate(8.099 10.14)" clip-path="url(#l)"><g data-name="Group 30" transform="translate(-8.089 -10.14)" clip-path="url(#f)"><path data-name="Rectangle 122" fill="#373fff" d="M7.798 9.832h12.261v5.707H7.798z"/></g></g><g data-name="Group 33" transform="translate(8.172 10.129)" clip-path="url(#m)"><g data-name="Group 32" transform="translate(-8.162 -10.129)" clip-path="url(#f)"><path data-name="Rectangle 124" fill="#f1a5ff" d="M7.911 9.832h12.148v4.294H7.911z"/></g></g><path data-name="Path 98" d="M6.931 10.807l.024.04c.02.035.043.075.067.121.07.13.14.273.2.423a3.9 3.9 0 01.246.743 1.87 1.87 0 01.043.376 3.239 3.239 0 01-.195 1.03 4.063 4.063 0 01-.136.347l-.044.1-.015.03a.259.259 0 00.086.336.216.216 0 00.308-.094c.015-.03.04-.082.072-.153.052-.117.1-.248.152-.388a3.748 3.748 0 00.223-1.2 2.4 2.4 0 00-.054-.485 4.4 4.4 0 00-.278-.845 6.207 6.207 0 00-.223-.461c-.046-.086-.082-.149-.1-.185a.215.215 0 00-.313-.07.261.261 0 00-.064.342z" fill="#373fff"/><path data-name="Path 99" d="M7.693 13.844q.026-.068.051-.14a3.748 3.748 0 00.223-1.2 2.4 2.4 0 00-.054-.485 4.4 4.4 0 00-.278-.845 6.207 6.207 0 00-.223-.461c-.046-.086-.082-.149-.1-.185a.215.215 0 00-.313-.07.261.261 0 00-.064.342l.024.04c.02.035.043.075.067.121.07.13.14.273.2.423a3.9 3.9 0 01.246.743 1.87 1.87 0 01.043.376 3.239 3.239 0 01-.195 1.03c-.039.113-.08.218-.121.314z" fill="#f1a5ff"/><g data-name="Group 34" transform="translate(6.893 10.413)" clip-path="url(#n)"><path data-name="Rectangle 126" fill="#f1a5ff" d="M-6.884-10.413H16.17V7.668H-6.884z"/></g></g></g><circle data-name="Ellipse 125" cx=".999" cy=".999" r=".999" transform="translate(2.933 3.715)"/><path data-name="Path 102" d="M2.933 4.636v-.012a1.077 1.077 0 111.074 1.112 1 1 0 01-1.062-.922.786.786 0 00.815.691.855.855 0 10-.83-.866z" fill="#fff" fill-rule="evenodd"/><circle data-name="Ellipse 126" cx=".275" cy=".275" r=".275" transform="translate(3.09 4.669)" fill="#fff"/><circle data-name="Ellipse 127" cx=".999" cy=".999" r=".999" transform="translate(2.933 11.021)"/><path data-name="Path 103" d="M2.933 11.941v-.012a1.077 1.077 0 111.074 1.109 1 1 0 01-1.062-.922.786.786 0 00.815.691.855.855 0 10-.83-.866z" fill="#fff" fill-rule="evenodd"/><circle data-name="Ellipse 128" cx=".275" cy=".275" r=".275" transform="translate(3.09 11.975)" fill="#fff"/></g></svg>