<svg xmlns="http://www.w3.org/2000/svg" xmlns:xlink="http://www.w3.org/1999/xlink" viewBox="0 0 59.052 13.682">
    <title>fullwebstack logo</title>
    <g id="logo" transform="translate(-2.072 0.529)">
      <g id="Layer_1" data-name="Layer 1" transform="translate(2.072 -0.529)">
        <rect
          id="Rectangle_2"
          data-name="Rectangle 2"
          width="10.629"
          height="1.597"
          rx="0.798"
          transform="matrix(-0.287, 0.958, -0.958, -0.287, 52.103, 2.073)"
          fill="#fbbb34"
        />
        <path
          id="Path_1"
          data-name="Path 1"
          d="M53.74,5.156V6.824a.978.978,0,0,0,.98.98h3.188a.98.98,0,0,1,.98.98v.1a.978.978,0,0,1-.98.98H54.719a.98.98,0,0,0-.98.984v3.483a.98.98,0,0,1-.98.98h0a.98.98,0,0,1-.98-.98V3.08a.978.978,0,0,1,.986-.98h5.711a1.037,1.037,0,0,1,1.039,1.041h0a1.039,1.039,0,0,1-1.039,1.033H54.726a.978.978,0,0,0-.986.982Z"
          transform="translate(-42.15 -1.775)"
          fill="#fff"
        />
        <path
          id="Path_2"
          data-name="Path 2"
          d="M98.7,11.6l2.4-8.76a1.007,1.007,0,0,1,.973-.742h.213a1.007,1.007,0,0,1,.973.742l2.4,8.76,2.7-8.79a1.007,1.007,0,0,1,.973-.712h0a1.007,1.007,0,0,1,.965,1.3l-3.383,11a1.29,1.29,0,0,1-1.233.912h0a1.292,1.292,0,0,1-1.237-.965l-2.183-8.1h-.134l-2.183,8.1a1.292,1.292,0,0,1-1.245.954h0a1.29,1.29,0,0,1-1.245-.9l-3.373-11a1.007,1.007,0,0,1,.965-1.3h0A1.007,1.007,0,0,1,96,2.812Z"
          transform="translate(-75.422 -1.775)"
          fill="#fff"
        />
        <path
          id="Path_3"
          data-name="Path 3"
          d="M178.6,2.634a2.338,2.338,0,0,0-1.4.4,1.386,1.386,0,0,0-.548,1.2,1.462,1.462,0,0,0,.548,1.228,7.663,7.663,0,0,0,2.338.916,6.042,6.042,0,0,1,2.689,1.379,3.5,3.5,0,0,1,.905,2.616,3.677,3.677,0,0,1-1.146,2.805,4.2,4.2,0,0,1-3.005,1.078,6.4,6.4,0,0,1-4.136-1.5.993.993,0,0,1-.166-1.358l.055-.077a1,1,0,0,1,1.415-.213,4.712,4.712,0,0,0,2.88,1.063,2.266,2.266,0,0,0,1.5-.453,1.515,1.515,0,0,0,.557-1.228,1.449,1.449,0,0,0-.523-1.19,5.115,5.115,0,0,0-1.8-.774,15.124,15.124,0,0,1-1.943-.638,4.291,4.291,0,0,1-1.18-.767A3.4,3.4,0,0,1,174.6,4.4a3.494,3.494,0,0,1,1.171-2.825,4.325,4.325,0,0,1,2.9-1A6.2,6.2,0,0,1,180.88,1a5.815,5.815,0,0,1,1.12.563,1,1,0,0,1,.3,1.369h0a1.012,1.012,0,0,1-1.358.334,5.227,5.227,0,0,0-.616-.289,4.793,4.793,0,0,0-1.73-.34Z"
          transform="translate(-138.771 -0.571)"
          fill="#fff"
        />
        <path
          id="Path_4"
          data-name="Path 4"
          d="M1.895,7.252,5.326,3.82a.784.784,0,0,0,0-1.109h0a.784.784,0,0,0-1.109,0L.231,6.7a.784.784,0,0,0,0,1.109l3.986,3.986a.784.784,0,0,0,1.109,0h0a.786.786,0,0,0,0-1.111Z"
          transform="translate(-0.002 -0.318)"
          fill="#56d2f7"
        />
        <path
          id="Path_5"
          data-name="Path 5"
          d="M271.18,7.289l-3.43,3.43a.786.786,0,0,0,0,1.111h0a.786.786,0,0,0,1.111,0l3.984-3.986a.784.784,0,0,0,0-1.109L268.86,2.755a.786.786,0,0,0-1.109,0h0a.784.784,0,0,0,0,1.109Z"
          transform="translate(-214.023 -0.355)"
          fill="#56d2f7"
        />
      </g>
    </g>
  </svg>
