<svg xmlns="http://www.w3.org/2000/svg" viewBox="0 0 25 25"><g data-name="Ellipse 25" fill="#fff" stroke="#a6a385"><circle cx="12.5" cy="12.5" r="12.5" stroke="none"/><circle cx="12.5" cy="12.5" r="12" fill="none"/></g><g data-name="mongodb" fill-rule="evenodd"><path data-name="Path 52" d="M13.058 22.504l-.546-.187s.067-2.783-.932-2.982c-.666-.772.107-32.754 2.5-.107a1.947 1.947 0 00-.972 1.118 10.269 10.269 0 00-.053 2.157z" fill="#fff"/><path data-name="Path 53" d="M13.058 22.504l-.546-.187s.067-2.783-.932-2.982c-.666-.772.107-32.754 2.5-.107a1.947 1.947 0 00-.972 1.118 10.269 10.269 0 00-.053 2.157z" fill="#a6a385"/><path data-name="Path 54" d="M13.351 19.815a9.673 9.673 0 003.661-9.68c-1.078-4.753-3.622-6.311-3.9-6.91a6.721 6.721 0 01-.6-1.172l.2 13.221c0 .013-.413 4.048.639 4.541" fill="#fff"/><path data-name="Path 55" d="M13.351 19.815a9.673 9.673 0 003.661-9.68c-1.078-4.753-3.622-6.311-3.9-6.91a6.721 6.721 0 01-.6-1.172l.2 13.221c0 .013-.413 4.048.639 4.541" fill="#499d4a"/><path data-name="Path 56" d="M12.232 19.988s-4.487-3.062-4.221-8.455a11.357 11.357 0 014.035-8.521 1.24 1.24 0 00.439-1.015c.28.6.226 8.961.266 9.946a32.091 32.091 0 01-.519 8.045z" fill="#fff"/><path data-name="Path 57" d="M12.232 19.988s-4.487-3.062-4.221-8.455a11.357 11.357 0 014.035-8.521 1.24 1.24 0 00.439-1.015c.28.6.226 8.961.266 9.946a32.091 32.091 0 01-.519 8.045z" fill="#58aa50"/></g></svg>