<svg xmlns="http://www.w3.org/2000/svg" viewBox="0 0 13 14.326"><path data-name="Path 37" d="M5.914.153a1.2 1.2 0 011.173 0l5.357 3.026a1.1 1.1 0 01.557.95v6.07a1.115 1.115 0 01-.6.97L7.064 14.18a1.167 1.167 0 01-1.186-.033l-1.6-.926a.943.943 0 01-.309-.222c.068-.092.19-.1.289-.143a3.738 3.738 0 00.632-.295.147.147 0 01.164.01c.456.262.908.531 1.366.79.1.056.2-.018.28-.065q2.62-1.481 5.241-2.958a.173.173 0 00.1-.171V4.16a.188.188 0 00-.112-.187l-5.319-3a.185.185 0 00-.209 0l-5.319 3a.186.186 0 00-.112.186v6.008a.17.17 0 00.1.169l1.42.8a1.1 1.1 0 00.888.119.674.674 0 00.436-.633V4.65a.15.15 0 01.163-.153h.682a.157.157 0 01.148.182v6.01a1.524 1.524 0 01-.713 1.376 2.195 2.195 0 01-1.968-.049c-.52-.26-1.017-.566-1.528-.844a1.112 1.112 0 01-.6-.971V4.129a1.1 1.1 0 01.576-.962z" fill="#8cc84b"/><path data-name="Path 38" d="M7.51 4.431a4.107 4.107 0 012.248.344 1.7 1.7 0 01.829 1.471.159.159 0 01-.173.117h-.659a.17.17 0 01-.159-.165 1 1 0 00-.48-.693A2.844 2.844 0 007.8 5.317a1.787 1.787 0 00-.942.235.6.6 0 00-.2.667c.071.168.264.222.422.272.912.239 1.878.215 2.773.529a1.305 1.305 0 01.859.765 1.633 1.633 0 01-.277 1.558 2.183 2.183 0 01-1.172.632 5.631 5.631 0 01-1.769.075 2.788 2.788 0 01-1.556-.586 1.633 1.633 0 01-.526-1.288.148.148 0 01.162-.13h.663a.155.155 0 01.158.153 1 1 0 00.374.706 2.836 2.836 0 001.528.278 2.075 2.075 0 001.253-.306.692.692 0 00.188-.661c-.054-.2-.258-.286-.433-.346-.9-.285-1.878-.181-2.769-.5a1.348 1.348 0 01-.851-.742 1.519 1.519 0 01.3-1.58 2.449 2.449 0 011.52-.611z" fill="#8cc84b"/></svg>