<svg xmlns="http://www.w3.org/2000/svg" viewBox="0 0 13 14.366"><path data-name="Path 43" d="M12.6 11.073l-5.844 3.293V11.8l3.641-2zm.4-.361V3.824l-2.138 1.23v4.427zm-12.6.361l5.844 3.293V11.8l-3.641-2zm-.4-.361V3.824l2.138 1.23v4.427zm.25-7.333L6.243.001v2.48l-3.839 2.1-.029.017zm12.5 0L6.756 0v2.48l3.839 2.1.029.017z" fill="#8ed6fb"/><path data-name="Path 44" d="M6.238 11.295l-3.662-2v-3.97l3.662 2.1v3.87m.523 0l3.662-2v-3.97l-3.662 2.1v3.87M2.824 4.862L6.501 2.85l3.677 2.012-3.677 2.113-3.677-2.113" fill="#1c78c0"/></svg>