<svg xmlns="http://www.w3.org/2000/svg" viewBox="0 0 91.198 85.075"><g data-name="Path 12" fill="none"><path d="M24.682 60.867a3.053 3.053 0 01-1.96-3.846l1.118-3.441a21.249 21.249 0 01-5.388-4.654l-3.259 1.66a3.054 3.054 0 01-4.106-1.334l-1.664-3.26a3.054 3.054 0 011.334-4.107l3.348-1.706a21.246 21.246 0 01-.466-6.978L9.98 32.013a3.053 3.053 0 01-1.961-3.846l1.133-3.486A3.053 3.053 0 0113 22.721l3.798 1.234a21.255 21.255 0 014.489-5.12l-1.857-3.642a3.053 3.053 0 011.335-4.107l3.263-1.664a3.054 3.054 0 014.107 1.335l1.904 3.727a21.239 21.239 0 016.662-.487l1.305-4.017a3.053 3.053 0 013.847-1.96l3.485 1.132A3.054 3.054 0 0147.298 13l-1.305 4.017a21.249 21.249 0 015.104 4.31l3.732-1.902a3.054 3.054 0 014.106 1.334l1.664 3.265a3.054 3.054 0 01-1.334 4.106l-3.643 1.856a21.257 21.257 0 01.621 6.786l3.798 1.234A3.053 3.053 0 0162 41.853l-1.133 3.484a3.053 3.053 0 01-3.846 1.96l-3.662-1.19a21.248 21.248 0 01-4.478 5.371l1.705 3.348a3.054 3.054 0 01-1.334 4.106l-3.265 1.664a3.054 3.054 0 01-4.106-1.335l-1.66-3.257a21.247 21.247 0 01-7.094.597l-1.117 3.438a3.053 3.053 0 01-3.848 1.96z"/><path d="M28.785 60.098a1.054 1.054 0 001.327-.676l1.117-3.437.49-1.509 1.58.134c2.16.183 4.322 0 6.428-.541l1.552-.4.728 1.428 1.66 3.258c.128.25.345.436.613.523.268.087.553.065.804-.063l3.264-1.663c.517-.264.724-.9.46-1.417l-1.705-3.347-.713-1.399 1.19-1.024a19.215 19.215 0 004.053-4.866l.813-1.39 1.532.497 3.661 1.19a1.054 1.054 0 001.327-.676l1.132-3.485a1.054 1.054 0 00-.676-1.327l-3.797-1.234-1.486-.482.109-1.559a19.23 19.23 0 00-.564-6.144l-.4-1.552 1.43-.728 3.641-1.856c.518-.264.724-.9.46-1.417l-1.662-3.264a1.047 1.047 0 00-.614-.524 1.047 1.047 0 00-.803.063l-3.733 1.902-1.398.713-1.024-1.19a19.227 19.227 0 00-4.622-3.908l-1.358-.82.49-1.509 1.306-4.018a1.055 1.055 0 00-.677-1.327l-3.484-1.132a1.054 1.054 0 00-1.327.676l-1.306 4.018-.49 1.508-1.58-.134a19.222 19.222 0 00-6.037.446l-1.528.36-.713-1.4-1.901-3.732a1.046 1.046 0 00-.613-.523 1.047 1.047 0 00-.804.063l-3.265 1.664a1.054 1.054 0 00-.46 1.416l1.856 3.643.728 1.428-1.236 1.022a19.23 19.23 0 00-4.067 4.639l-.828 1.325-1.486-.483-3.797-1.234a1.054 1.054 0 00-1.328.676l-1.132 3.484c-.18.553.124 1.148.677 1.327l3.662 1.19 1.531.498-.16 1.602c-.21 2.117-.07 4.243.42 6.32l.36 1.527-1.4.713-3.347 1.706a1.054 1.054 0 00-.46 1.416l1.663 3.264c.128.251.346.437.613.524.268.087.553.065.804-.063l3.258-1.66 1.428-.728 1.021 1.236a19.215 19.215 0 004.882 4.216l1.357.82-.49 1.51-1.117 3.437c-.18.552.124 1.147.676 1.327l3.485 1.132M28.167 62l-3.485-1.132a3.053 3.053 0 01-1.96-3.847l1.117-3.437a21.249 21.249 0 01-5.388-4.654l-3.258 1.66a3.043 3.043 0 01-2.33.183 3.045 3.045 0 01-1.777-1.517L9.423 45.99a3.054 3.054 0 011.334-4.106l3.348-1.706a21.246 21.246 0 01-.462-6.976l-3.662-1.19a3.053 3.053 0 01-1.96-3.847l1.131-3.484A3.053 3.053 0 0113 22.722l3.797 1.234a21.255 21.255 0 014.489-5.121l-1.856-3.643a3.053 3.053 0 011.334-4.106l3.265-1.664a3.045 3.045 0 012.33-.183 3.043 3.043 0 011.776 1.518l1.902 3.732a21.238 21.238 0 016.664-.491l1.306-4.018a3.053 3.053 0 013.847-1.96l3.484 1.132a3.053 3.053 0 011.96 3.847l-1.305 4.018a21.248 21.248 0 015.103 4.314l3.732-1.902a3.044 3.044 0 012.33-.183 3.044 3.044 0 011.776 1.518l1.664 3.264a3.054 3.054 0 01-1.335 4.107l-3.642 1.856a21.26 21.26 0 01.622 6.781l3.797 1.234A3.053 3.053 0 0162 41.853l-1.132 3.485a3.053 3.053 0 01-3.847 1.96l-3.661-1.19a21.247 21.247 0 01-4.475 5.372l1.706 3.347a3.054 3.054 0 01-1.335 4.107l-3.264 1.663a3.044 3.044 0 01-2.33.183 3.044 3.044 0 01-1.777-1.517l-1.66-3.258a21.247 21.247 0 01-7.094.598l-1.117 3.437A3.053 3.053 0 0128.167 62z" fill="#5dbeff"/></g><g data-name="Path 14" fill="none"><path d="M56.651 74.623a1.879 1.879 0 01-.461-2.617l1.277-1.825a13.077 13.077 0 01-2.333-3.709l-2.216.393a1.879 1.879 0 01-2.177-1.524l-.392-2.221a1.879 1.879 0 011.524-2.177l2.278-.401a13.075 13.075 0 01.98-4.19l-1.939-1.358a1.879 1.879 0 01-.461-2.617l1.293-1.847a1.879 1.879 0 012.617-.462l2.014 1.41a13.081 13.081 0 013.562-2.206l-.437-2.477a1.879 1.879 0 011.524-2.177l2.22-.392a1.879 1.879 0 012.177 1.524l.448 2.539a13.07 13.07 0 014.01.91l1.492-2.13a1.879 1.879 0 012.617-.461l1.847 1.293a1.879 1.879 0 01.461 2.617l-1.491 2.13a13.077 13.077 0 012.227 3.457l2.539-.448a1.879 1.879 0 012.176 1.524l.391 2.22a1.879 1.879 0 01-1.524 2.177l-2.477.437a13.082 13.082 0 01-.855 4.102l2.013 1.41a1.879 1.879 0 01.464 2.619l-1.293 1.847a1.879 1.879 0 01-2.617.462l-1.941-1.36a13.076 13.076 0 01-3.605 2.36l.401 2.276a1.879 1.879 0 01-1.524 2.177l-2.22.391a1.879 1.879 0 01-2.176-1.524l-.391-2.216a13.076 13.076 0 01-4.284-.924l-1.275 1.822a1.879 1.879 0 01-2.615.459z"/><path d="M59.548 74.207l1.207-1.723.91-1.3 1.472.59c1.157.464 2.378.728 3.628.784l1.602.072.278 1.579.37 2.096 1.982-.35-.38-2.157-.273-1.546 1.437-.632a11.058 11.058 0 003.05-1.996l1.183-1.092 1.32.924 1.841 1.29 1.154-1.649-1.913-1.34-1.28-.896.56-1.459c.426-1.112.67-2.282.723-3.476l.072-1.602 1.579-.278 2.358-.416-.35-1.982-2.419.427-1.545.272-.633-1.436a11.065 11.065 0 00-1.886-2.929L74.537 52.8l.91-1.3 1.422-2.03-1.649-1.154-1.422 2.03-.91 1.3-1.472-.59a11.061 11.061 0 00-3.397-.771l-1.567-.103-.272-1.546-.427-2.42-1.982.35.416 2.359.278 1.579-1.48.615a11.066 11.066 0 00-3.019 1.869l-1.18 1.025-1.279-.896-1.914-1.34-1.154 1.648 1.842 1.29 1.319.923-.621 1.486a11.057 11.057 0 00-.833 3.549l-.103 1.566-1.545.272-2.158.38.35 1.983 2.096-.37 1.58-.278.614 1.48a11.058 11.058 0 001.977 3.142l1.059 1.182-.91 1.3-1.207 1.722 1.65 1.155M58.5 75.914l-1.847-1.293a1.879 1.879 0 01-.461-2.617l1.275-1.822a13.077 13.077 0 01-2.334-3.708l-2.216.39a1.874 1.874 0 01-2.177-1.524l-.39-2.22a1.88 1.88 0 011.523-2.177l2.278-.401c.093-1.42.417-2.836.983-4.189l-1.941-1.36a1.879 1.879 0 01-.462-2.616l1.293-1.847a1.879 1.879 0 012.617-.461l2.013 1.41a13.08 13.08 0 013.563-2.207l-.437-2.478a1.88 1.88 0 011.524-2.176l2.221-.392a1.877 1.877 0 012.177 1.524l.448 2.54a13.07 13.07 0 014.01.909l1.491-2.13a1.879 1.879 0 012.617-.461l1.847 1.293a1.88 1.88 0 01.462 2.617l-1.492 2.13a13.077 13.077 0 012.227 3.457l2.539-.448c.51-.09 1.01.036 1.404.312.394.276.682.702.772 1.213l.392 2.22a1.88 1.88 0 01-1.524 2.177l-2.478.437a13.082 13.082 0 01-.854 4.103l2.013 1.41a1.879 1.879 0 01.461 2.616l-1.293 1.847a1.879 1.879 0 01-2.617.461l-1.94-1.359a13.076 13.076 0 01-3.6 2.357l.4 2.277a1.88 1.88 0 01-1.524 2.176l-2.22.392a1.877 1.877 0 01-1.404-.311 1.873 1.873 0 01-.773-1.213l-.39-2.216a13.076 13.076 0 01-4.283-.925l-1.276 1.822a1.88 1.88 0 01-2.617.461z" fill="#5dbeff"/></g><path d="M36.307 31.026a4.5 4.5 0 00-5.665 2.887 4.5 4.5 0 002.886 5.665 4.5 4.5 0 005.665-2.887 4.5 4.5 0 00-2.886-5.665m.309-.95a5.496 5.496 0 11-3.397 10.453 5.496 5.496 0 013.397-10.454z" fill="#fbbb34" data-name="Path 13"/><path d="M68.643 59.464a2.385 2.385 0 00-3.318.585 2.385 2.385 0 00.585 3.318 2.385 2.385 0 003.318-.585 2.385 2.385 0 00-.585-3.318m.574-.82c0 .001 0 0 0 0a3.382 3.382 0 01-3.88 5.542 3.382 3.382 0 013.88-5.541z" fill="#5dbeff" data-name="Path 15"/></svg>